<?xml version="1.0" encoding="UTF-8"?>
<svg width="995px" height="209px" viewBox="0 0 995 209" version="1.1" xmlns="http://www.w3.org/2000/svg" xmlns:xlink="http://www.w3.org/1999/xlink">
    <!-- Generator: Sketch 64 (93537) - https://sketch.com -->
    <title>specs-logo-horizontal</title>
    <desc>Created with Sketch.</desc>
    <g id="specs-logo-horizontal" stroke="none" stroke-width="1" fill="none" fill-rule="evenodd">
        <rect fill="#FFFFFF" x="0" y="0" width="995" height="209"></rect>
        <g id="logo-title-light" transform="translate(89.000000, 78.600000)" fill="#000000" fill-rule="nonzero">
            <path d="M38.6246645,72.8 C43.8279872,72.8 49.0313099,72.0333333 54.2346326,70.5 C59.4379553,68.9666667 64.0408946,66.7666667 68.0434505,63.9 L68.0434505,63.9 L68.0434505,34.9 L50.5322684,34.9 L50.5322684,54.1 C47.1968051,55.6333333 43.6278594,56.4 39.8254313,56.4 C35.9562939,56.4 32.5207668,55.55 29.5188498,53.85 C26.5169329,52.15 24.1821086,49.7833333 22.514377,46.75 C20.8466454,43.7166667 20.0127796,40.2666667 20.0127796,36.4 C20.0127796,30.3333333 21.8472843,25.4833333 25.5162939,21.85 C29.1853035,18.2166667 34.0217252,16.4 40.0255591,16.4 C46.6297764,16.4 52.3000639,19 57.0364217,24.2 L57.0364217,24.2 L69.6444728,12.8 C66.1755911,8.66666667 61.8394888,5.5 56.6361661,3.3 C51.4328435,1.1 45.5624281,0 39.0249201,0 C31.5534824,0 24.8492013,1.55 18.9120767,4.65 C12.9749521,7.75 8.33865815,12.0666667 5.00319489,17.6 C1.66773163,23.1333333 0,29.4 0,36.4 C0,43.4 1.66773163,49.6666667 5.00319489,55.2 C8.33865815,60.7333333 12.9415974,65.05 18.8120128,68.15 C24.6824281,71.25 31.2866454,72.8 38.6246645,72.8 Z M96.7117572,71.4 L96.7117572,52.8 L107.518658,52.8 L120.226773,71.4 L141.440319,71.4 L126.330671,49.4 C130.733482,47.2666667 134.118978,44.3166667 136.487157,40.55 C138.855335,36.7833333 140.039425,32.3666667 140.039425,27.3 C140.039425,22.0333333 138.771949,17.45 136.236997,13.55 C133.702045,9.65 130.099744,6.65 125.430096,4.55 C120.760447,2.45 115.256933,1.4 108.919553,1.4 L108.919553,1.4 L76.8991054,1.4 L76.8991054,71.4 L96.7117572,71.4 Z M107.718786,37.5 L96.7117572,37.5 L96.7117572,17 L107.718786,17 C111.788051,17 114.856677,17.9 116.924665,19.7 C118.992652,21.5 120.026645,24.0333333 120.026645,27.3 C120.026645,30.5666667 118.992652,33.0833333 116.924665,34.85 C114.856677,36.6166667 111.788051,37.5 107.718786,37.5 L107.718786,37.5 Z M182.51655,72.8 C189.921278,72.8 196.575527,71.2333333 202.479297,68.1 C208.383067,64.9666667 213.019361,60.6333333 216.388179,55.1 C219.756997,49.5666667 221.441406,43.3333333 221.441406,36.4 C221.441406,29.4666667 219.756997,23.2333333 216.388179,17.7 C213.019361,12.1666667 208.383067,7.83333333 202.479297,4.7 C196.575527,1.56666667 189.921278,0 182.51655,0 C175.111821,0 168.457572,1.56666667 162.553802,4.7 C156.650032,7.83333333 152.013738,12.1666667 148.64492,17.7 C145.276102,23.2333333 143.591693,29.4666667 143.591693,36.4 C143.591693,43.3333333 145.276102,49.5666667 148.64492,55.1 C152.013738,60.6333333 156.650032,64.9666667 162.553802,68.1 C168.457572,71.2333333 175.111821,72.8 182.51655,72.8 Z M182.51655,56.4 C178.980958,56.4 175.778914,55.5666667 172.910415,53.9 C170.041917,52.2333333 167.773802,49.8833333 166.10607,46.85 C164.438339,43.8166667 163.604473,40.3333333 163.604473,36.4 C163.604473,32.4666667 164.438339,28.9833333 166.10607,25.95 C167.773802,22.9166667 170.041917,20.5666667 172.910415,18.9 C175.778914,17.2333333 178.980958,16.4 182.51655,16.4 C186.052141,16.4 189.254185,17.2333333 192.122684,18.9 C194.991182,20.5666667 197.259297,22.9166667 198.927029,25.95 C200.59476,28.9833333 201.428626,32.4666667 201.428626,36.4 C201.428626,40.3333333 200.59476,43.8166667 198.927029,46.85 C197.259297,49.8833333 194.991182,52.2333333 192.122684,53.9 C189.254185,55.5666667 186.052141,56.4 182.51655,56.4 Z M260.416294,72.8 C270.822939,72.8 278.911438,69.9666667 284.681789,64.3 C290.452141,58.6333333 293.337316,50.6 293.337316,40.2 L293.337316,40.2 L293.337316,1.4 L273.824856,1.4 L273.824856,39.6 C273.824856,50.8 269.422045,56.4 260.616422,56.4 C251.744089,56.4 247.307923,50.8 247.307923,39.6 L247.307923,39.6 L247.307923,1.4 L227.495272,1.4 L227.495272,40.2 C227.495272,50.6 230.380447,58.6333333 236.150799,64.3 C241.92115,69.9666667 250.009649,72.8 260.416294,72.8 Z M322.405879,71.4 L322.405879,34.1 L353.325623,71.4 L369.636038,71.4 L369.636038,1.4 L350.223642,1.4 L350.223642,38.7 L319.303898,1.4 L302.993482,1.4 L302.993482,71.4 L322.405879,71.4 Z M413.013738,71.4 C420.685304,71.4 427.489649,69.9666667 433.426773,67.1 C439.363898,64.2333333 443.966837,60.1666667 447.235591,54.9 C450.504345,49.6333333 452.138722,43.4666667 452.138722,36.4 C452.138722,29.3333333 450.504345,23.1666667 447.235591,17.9 C443.966837,12.6333333 439.363898,8.56666667 433.426773,5.7 C427.489649,2.83333333 420.685304,1.4 413.013738,1.4 L413.013738,1.4 L379.892588,1.4 L379.892588,71.4 L413.013738,71.4 Z M412.213227,55.6 L399.70524,55.6 L399.70524,17.2 L412.213227,17.2 C418.217061,17.2 423.036805,18.9 426.67246,22.3 C430.308115,25.7 432.125942,30.4 432.125942,36.4 C432.125942,42.4 430.308115,47.1 426.67246,50.5 C423.036805,53.9 418.217061,55.6 412.213227,55.6 L412.213227,55.6 Z M512.026965,71.4 L512.026965,55.7 L478.605623,55.7 L478.605623,1.4 L458.792971,1.4 L458.792971,71.4 L512.026965,71.4 Z M528.687604,71.4 L534.191118,57.8 L563.810032,57.8 L569.313546,71.4 L589.926709,71.4 L558.906901,1.4 L539.394441,1.4 L508.474696,71.4 L528.687604,71.4 Z M558.006326,43.2 L539.994824,43.2 L549.000575,20.8 L558.006326,43.2 Z M624.899042,71.4 L624.899042,46.3 L651.716166,1.4 L632.503898,1.4 L615.893291,29.2 L599.282684,1.4 L578.369329,1.4 L605.08639,46 L605.08639,71.4 L624.899042,71.4 Z M708.902684,71.4 L708.902684,56.1 L672.279297,56.1 L672.279297,43.3 L703.399169,43.3 L703.399169,28.5 L672.279297,28.5 L672.279297,16.7 L707.601853,16.7 L707.601853,1.4 L652.666773,1.4 L652.666773,71.4 L708.902684,71.4 Z M735.969968,71.4 L735.969968,52.8 L746.776869,52.8 L759.484984,71.4 L780.69853,71.4 L765.588882,49.4 C769.991693,47.2666667 773.377188,44.3166667 775.745367,40.55 C778.113546,36.7833333 779.297636,32.3666667 779.297636,27.3 C779.297636,22.0333333 778.03016,17.45 775.495208,13.55 C772.960256,9.65 769.357955,6.65 764.688307,4.55 C760.018658,2.45 754.515144,1.4 748.177764,1.4 L748.177764,1.4 L716.157316,1.4 L716.157316,71.4 L735.969968,71.4 Z M746.976997,37.5 L735.969968,37.5 L735.969968,17 L746.976997,17 C751.046262,17 754.114888,17.9 756.182875,19.7 C758.250863,21.5 759.284856,24.0333333 759.284856,27.3 C759.284856,30.5666667 758.250863,33.0833333 756.182875,34.85 C754.114888,36.6166667 751.046262,37.5 746.976997,37.5 L746.976997,37.5 Z" id="GROUNDLAYER"></path>
        </g>
        <g id="logo-slogan-light" transform="translate(104.000000, 174.750000)" fill="#000000" fill-rule="nonzero">
            <path d="M10.5479996,25.7531782 C13.1939384,25.7531782 15.5419112,25.2196848 17.5919179,24.1526982 C19.6419246,23.0857115 21.2330635,21.5882927 22.3653347,19.6604418 C23.4976058,17.7325909 24.0637414,15.5198061 24.0637414,13.0220873 C24.0637414,10.5243685 23.4976058,8.31158364 22.3653347,6.38373273 C21.2330635,4.45588182 19.6419246,2.95846303 17.5919179,1.89147636 C15.5419112,0.824489697 13.1939384,0.290996364 10.5479996,0.290996364 L10.5479996,0.290996364 L0,0.290996364 L0,25.7531782 L10.5479996,25.7531782 Z M10.333464,22.5885927 L3.57559307,22.5885927 L3.57559307,3.45558182 L10.333464,3.45558182 C12.3596334,3.45558182 14.1414706,3.85570182 15.6789756,4.65594182 C17.2164806,5.45618182 18.4023857,6.5777303 19.2366907,8.02058727 C20.0709958,9.46344424 20.4881483,11.1306109 20.4881483,13.0220873 C20.4881483,14.9135636 20.0709958,16.5807303 19.2366907,18.0235873 C18.4023857,19.4664442 17.2164806,20.5879927 15.6789756,21.3882327 C14.1414706,22.1884727 12.3596334,22.5885927 10.333464,22.5885927 L10.333464,22.5885927 Z M56.9564203,25.7531782 L56.9564203,22.5885927 L42.3680005,22.5885927 L42.3680005,14.3679455 L54.9183322,14.3679455 L54.9183322,11.2761091 L42.3680005,11.2761091 L42.3680005,3.45558182 L56.4558372,3.45558182 L56.4558372,0.290996364 L38.7924074,0.290996364 L38.7924074,25.7531782 L56.9564203,25.7531782 Z M82.4118655,25.7531782 L93.3889363,0.290996364 L89.8133432,0.290996364 L80.7313368,21.20636 L71.7208423,0.290996364 L67.8592017,0.290996364 L78.8720284,25.7531782 L82.4118655,25.7531782 Z M116.877805,26.0441745 C119.380721,26.0441745 121.645263,25.4803691 123.671432,24.3527582 C125.697602,23.2251473 127.282781,21.6731667 128.426971,19.6968164 C129.571161,17.7204661 130.143256,15.4955564 130.143256,13.0220873 C130.143256,10.5486182 129.571161,8.32370848 128.426971,6.34735818 C127.282781,4.37100788 125.697602,2.81902727 123.671432,1.69141636 C121.645263,0.563805455 119.380721,0 116.877805,0 C114.351053,0 112.074592,0.563805455 110.048423,1.69141636 C108.022253,2.81902727 106.431114,4.3770703 105.275006,6.36554545 C104.118897,8.35402061 103.540843,10.5728679 103.540843,13.0220873 C103.540843,15.4713067 104.118897,17.6901539 105.275006,19.6786291 C106.431114,21.6671042 108.022253,23.2251473 110.048423,24.3527582 C112.074592,25.4803691 114.351053,26.0441745 116.877805,26.0441745 Z M116.877805,22.80684 C115.042334,22.80684 113.379683,22.3824703 111.889853,21.5337309 C110.400023,20.6849915 109.231996,19.5149436 108.385772,18.0235873 C107.539548,16.5322309 107.116436,14.8650642 107.116436,13.0220873 C107.116436,11.1791103 107.539548,9.51194364 108.385772,8.02058727 C109.231996,6.52923091 110.400023,5.35918303 111.889853,4.51044364 C113.379683,3.66170424 115.042334,3.23733455 116.877805,3.23733455 C118.713276,3.23733455 120.364009,3.66170424 121.830002,4.51044364 C123.295995,5.35918303 124.452103,6.52923091 125.298327,8.02058727 C126.144551,9.51194364 126.567663,11.1791103 126.567663,13.0220873 C126.567663,14.8650642 126.144551,16.5322309 125.298327,18.0235873 C124.452103,19.5149436 123.295995,20.6849915 121.830002,21.5337309 C120.364009,22.3824703 118.713276,22.80684 116.877805,22.80684 Z M148.447515,25.7531782 L148.447515,18.0417745 L154.633291,18.0417745 C157.875162,18.0417745 160.425752,17.2536594 162.28506,15.6774291 C164.144368,14.1011988 165.074023,11.9308509 165.074023,9.16638545 C165.074023,6.40192 164.144368,4.23157212 162.28506,2.65534182 C160.425752,1.07911152 157.875162,0.290996364 154.633291,0.290996364 L154.633291,0.290996364 L144.871922,0.290996364 L144.871922,25.7531782 L148.447515,25.7531782 Z M154.526023,14.8771891 L148.447515,14.8771891 L148.447515,3.45558182 L154.526023,3.45558182 C156.790565,3.45558182 158.518769,3.94663818 159.710633,4.92875091 C160.902497,5.91086364 161.49843,7.32340848 161.49843,9.16638545 C161.49843,11.0093624 160.902497,12.4219073 159.710633,13.40402 C158.518769,14.3861327 156.790565,14.8771891 154.526023,14.8771891 L154.526023,14.8771891 Z M187.239922,26.0441745 C189.361441,26.0441745 191.149237,25.7228661 192.603312,25.0802491 C194.057386,24.4376321 195.141983,23.564643 195.857102,22.4612818 C196.57222,21.3579206 196.929779,20.1393733 196.929779,18.80564 C196.929779,17.20516 196.518586,15.9320509 195.6962,14.9863127 C194.873813,14.0405745 193.890525,13.3373333 192.746336,12.8765891 C191.602146,12.4158448 190.088478,11.9551006 188.205332,11.4943564 C186.751258,11.1548606 185.601109,10.8335521 184.754885,10.5304309 C183.908661,10.2273097 183.199502,9.80294 182.627407,9.25732182 C182.055312,8.71170364 181.769265,8.0024 181.769265,7.12941091 C181.769265,5.94117576 182.275807,4.97118788 183.288892,4.21944727 C184.301977,3.46770667 185.821604,3.09183636 187.847773,3.09183636 C188.991963,3.09183636 190.15999,3.26764667 191.351854,3.61926727 C192.543719,3.97088788 193.664071,4.48619394 194.712912,5.16518545 L194.712912,5.16518545 L195.892857,2.25522182 C194.867854,1.52773091 193.640234,0.969987879 192.209997,0.581992727 C190.779759,0.193997576 189.325685,0 187.847773,0 C185.726255,0 183.950377,0.327370909 182.520139,0.982112727 C181.089902,1.63685455 180.023184,2.50984364 179.319984,3.60108 C178.616784,4.69231636 178.265184,5.91692606 178.265184,7.27490909 C178.265184,8.89963879 178.676377,10.1909352 179.498763,11.1487982 C180.32115,12.1066612 181.310397,12.8159648 182.466505,13.2767091 C183.622614,13.7374533 185.142241,14.1981976 187.025387,14.6589418 C188.527136,15.0226873 189.689204,15.3500582 190.51159,15.6410545 C191.333976,15.9320509 192.025258,16.3503582 192.585434,16.8959764 C193.14561,17.4415945 193.425698,18.1508982 193.425698,19.0238873 C193.425698,20.2121224 192.913197,21.163923 191.888193,21.8792891 C190.86319,22.5946552 189.313766,22.9523382 187.239922,22.9523382 C185.666661,22.9523382 184.135116,22.6795291 182.645285,22.1339109 C181.155455,21.5882927 179.933794,20.8789891 178.980302,20.006 L178.980302,20.006 L177.657333,22.8432145 C178.658499,23.7889527 180.035102,24.5588806 181.787143,25.1529982 C183.539183,25.7471158 185.356777,26.0441745 187.239922,26.0441745 Z M248.448521,25.7531782 L248.448521,22.5885927 L233.860101,22.5885927 L233.860101,14.3679455 L246.410433,14.3679455 L246.410433,11.2761091 L233.860101,11.2761091 L233.860101,3.45558182 L247.947938,3.45558182 L247.947938,0.290996364 L230.284508,0.290996364 L230.284508,25.7531782 L248.448521,25.7531782 Z M267.074583,25.7531782 L267.074583,6.76566545 L282.092074,25.7531782 L285.024061,25.7531782 L285.024061,0.290996364 L281.448468,0.290996364 L281.448468,19.2785091 L266.430977,0.290996364 L263.49899,0.290996364 L263.49899,25.7531782 L267.074583,25.7531782 Z M313.089689,26.0441745 C314.877485,26.0441745 316.59377,25.765303 318.238543,25.20756 C319.883316,24.649817 321.325472,23.849577 322.56501,22.80684 L322.56501,22.80684 L322.56501,12.8765891 L319.132441,12.8765891 L319.132441,21.1699855 C317.463831,22.2612218 315.509173,22.80684 313.268468,22.80684 C311.385323,22.80684 309.686916,22.3824703 308.173248,21.5337309 C306.659581,20.6849915 305.473676,19.5149436 304.615533,18.0235873 C303.757391,16.5322309 303.32832,14.8650642 303.32832,13.0220873 C303.32832,11.1548606 303.757391,9.47556909 304.615533,7.98421273 C305.473676,6.49285636 306.659581,5.32887091 308.173248,4.49225636 C309.686916,3.65564182 311.397241,3.23733455 313.304224,3.23733455 C316.140862,3.23733455 318.560346,4.21944727 320.562678,6.18367273 L320.562678,6.18367273 L322.779546,3.92845091 C321.635356,2.64321697 320.246834,1.66716667 318.61398,1.0003 C316.981126,0.333433333 315.163533,0 313.161201,0 C310.610611,0 308.316272,0.55774303 306.278184,1.67322909 C304.240096,2.78871515 302.642998,4.34069576 301.486889,6.32917091 C300.330781,8.31764606 299.752727,10.5486182 299.752727,13.0220873 C299.752727,15.4955564 300.330781,17.7204661 301.486889,19.6968164 C302.642998,21.6731667 304.234137,23.2251473 306.260306,24.3527582 C308.286475,25.4803691 310.562936,26.0441745 313.089689,26.0441745 Z M342.227995,25.7531782 L342.227995,0.290996364 L338.652402,0.290996364 L338.652402,25.7531782 L342.227995,25.7531782 Z M362.570342,25.7531782 L362.570342,6.76566545 L377.587833,25.7531782 L380.519819,25.7531782 L380.519819,0.290996364 L376.944226,0.290996364 L376.944226,19.2785091 L361.926735,0.290996364 L358.994749,0.290996364 L358.994749,25.7531782 L362.570342,25.7531782 Z M415.450586,25.7531782 L415.450586,22.5885927 L400.862167,22.5885927 L400.862167,14.3679455 L413.412498,14.3679455 L413.412498,11.2761091 L400.862167,11.2761091 L400.862167,3.45558182 L414.950003,3.45558182 L414.950003,0.290996364 L397.286574,0.290996364 L397.286574,25.7531782 L415.450586,25.7531782 Z M448.665069,25.7531782 L448.665069,22.5885927 L434.076649,22.5885927 L434.076649,14.3679455 L446.626981,14.3679455 L446.626981,11.2761091 L434.076649,11.2761091 L434.076649,3.45558182 L448.164486,3.45558182 L448.164486,0.290996364 L430.501056,0.290996364 L430.501056,25.7531782 L448.665069,25.7531782 Z M467.291131,25.7531782 L467.291131,18.0054 L473.476907,18.0054 C473.858304,18.0054 474.382724,17.9811503 475.050168,17.9326509 L475.050168,17.9326509 L480.449314,25.7531782 L484.34671,25.7531782 L478.411226,17.20516 C480.175185,16.5746679 481.53391,15.5683055 482.487402,14.1860727 C483.440893,12.80384 483.917639,11.1306109 483.917639,9.16638545 C483.917639,6.40192 482.987985,4.23157212 481.128676,2.65534182 C479.269368,1.07911152 476.718778,0.290996364 473.476907,0.290996364 L473.476907,0.290996364 L463.715538,0.290996364 L463.715538,25.7531782 L467.291131,25.7531782 Z M473.369639,14.9135636 L467.291131,14.9135636 L467.291131,3.45558182 L473.369639,3.45558182 C475.634182,3.45558182 477.362385,3.94663818 478.554249,4.92875091 C479.746114,5.91086364 480.342046,7.32340848 480.342046,9.16638545 C480.342046,11.0093624 479.746114,12.4279697 478.554249,13.4222073 C477.362385,14.4164448 475.634182,14.9135636 473.369639,14.9135636 L473.369639,14.9135636 Z M502.543701,25.7531782 L502.543701,0.290996364 L498.968108,0.290996364 L498.968108,25.7531782 L502.543701,25.7531782 Z M522.886049,25.7531782 L522.886049,6.76566545 L537.903539,25.7531782 L540.835526,25.7531782 L540.835526,0.290996364 L537.259933,0.290996364 L537.259933,19.2785091 L522.242442,0.290996364 L519.310455,0.290996364 L519.310455,25.7531782 L522.886049,25.7531782 Z M568.901154,26.0441745 C570.688951,26.0441745 572.405235,25.765303 574.050008,25.20756 C575.694781,24.649817 577.136937,23.849577 578.376476,22.80684 L578.376476,22.80684 L578.376476,12.8765891 L574.943906,12.8765891 L574.943906,21.1699855 C573.275296,22.2612218 571.320639,22.80684 569.079934,22.80684 C567.196788,22.80684 565.498381,22.3824703 563.984714,21.5337309 C562.471046,20.6849915 561.285141,19.5149436 560.426998,18.0235873 C559.568856,16.5322309 559.139785,14.8650642 559.139785,13.0220873 C559.139785,11.1548606 559.568856,9.47556909 560.426998,7.98421273 C561.285141,6.49285636 562.471046,5.32887091 563.984714,4.49225636 C565.498381,3.65564182 567.208707,3.23733455 569.11569,3.23733455 C571.952327,3.23733455 574.371811,4.21944727 576.374144,6.18367273 L576.374144,6.18367273 L578.591011,3.92845091 C577.446821,2.64321697 576.058299,1.66716667 574.425445,1.0003 C572.792591,0.333433333 570.974998,0 568.972666,0 C566.422076,0 564.127737,0.55774303 562.089649,1.67322909 C560.051561,2.78871515 558.454463,4.34069576 557.298355,6.32917091 C556.142246,8.31764606 555.564192,10.5486182 555.564192,13.0220873 C555.564192,15.4955564 556.142246,17.7204661 557.298355,19.6968164 C558.454463,21.6731667 560.045602,23.2251473 562.071771,24.3527582 C564.097941,25.4803691 566.374402,26.0441745 568.901154,26.0441745 Z" id="DEVOPSENGINEERING"></path>
        </g>
        <g id="decoration-right" transform="translate(850.000000, 80.000000)" fill="#FED91F" fill-rule="nonzero">
            <polygon id="raw-decoration-right" points="75 0 75 120 0 120 0 95 50 95 50 0"></polygon>
        </g>
        <g id="decoration-left" transform="translate(34.000000, 30.000000)" fill="#FED91F" fill-rule="nonzero">
            <polygon id="raw-decoration-left" points="75 0 75 25 25 25 25 120 0 120 0 0"></polygon>
        </g>
        <g id="Group-5" transform="translate(59.000000, 80.000000)">
            <rect id="Rectangle" fill-opacity="0.5" fill="#627AFF" x="0" y="0" width="30" height="70"></rect>
            <text id="12" font-family="Inter-Medium, Inter" font-size="12" font-weight="400" fill="#001EE8">
                <tspan x="8" y="51">12</tspan>
            </text>
            <path id="Line-2" d="M30,42 L28,42 L28,36 L23,36 L23,34 L28,34 L28,28 L30,28 L30,42 Z M1.999,34 L6,34 L6,36 L2,36 L2,42 L7.86407976e-16,42 L-8.97430278e-16,28 L2,28 L1.999,34 Z M22,34 L22,36 L15,36 L15,34 L22,34 Z M14,34 L14,36 L7,36 L7,34 L14,34 Z" fill="#001EE8" fill-rule="nonzero"></path>
        </g>
        <g id="Group-5" transform="translate(104.000000, 100.000000)">
            <rect id="Rectangle" fill-opacity="0.5" fill="#627AFF" x="0" y="0" width="5" height="74"></rect>
            <text id="2" font-family="Inter-Medium, Inter" font-size="12" font-weight="400" fill="#001EE8">
                <tspan x="8" y="65">2</tspan>
            </text>
            <path id="Line-2" d="M3,61.999 L2,62 L2,68 L1.63295303e-14,68 L-1.64405526e-14,54 L2,54 L1.999,60 L2.999,59.999 L3,54 L5,54 L5,55 L5,67 L5,68 L3,68 L3,61.999 Z" fill="#001EE8" fill-rule="nonzero"></path>
        </g>
        <g id="Group-8" transform="translate(870.000000, 80.000000)">
            <rect id="Rectangle" fill-opacity="0.5" fill="#627AFF" x="0" y="0" width="30" height="70"></rect>
            <text id="12" font-family="Inter-Medium, Inter" font-size="12" font-weight="400" fill="#001EE8">
                <tspan x="8" y="30">12</tspan>
            </text>
            <path id="Line-2" d="M30,44 L28,44 L28,38 L23,38 L23,36 L28,36 L28,30 L30,30 L30,44 Z M1.999,36 L6,36 L6,38 L2,38 L2,44 L7.86407976e-16,44 L-8.97430278e-16,30 L2,30 L1.999,36 Z M22,36 L22,38 L15,38 L15,36 L22,36 Z M14,36 L14,38 L7,38 L7,36 L14,36 Z" fill="#001EE8" fill-rule="nonzero"></path>
        </g>
        <g id="Group-9" transform="translate(936.000000, 80.000000)">
            <rect id="Rectangle" fill-opacity="0.5" fill="#627AFF" x="0" y="0" width="52" height="70"></rect>
            <text id="28" font-family="Inter-Medium, Inter" font-size="12" font-weight="400" fill="#001EE8">
                <tspan x="32" y="40">28</tspan>
            </text>
            <path id="Line-2" d="M19,70 L19,68 L25,68 L25,64 L27,64 L27,68 L33,68 L33,70 L19,70 Z M27,56 L27,63 L25,63 L25,56 L27,56 Z M27,48 L27,55 L25,55 L25,48 L27,48 Z M27,40 L27,47 L25,47 L25,40 L27,40 Z M27,32 L27,39 L25,39 L25,32 L27,32 Z M27,24 L27,31 L25,31 L25,24 L27,24 Z M27,16 L27,23 L25,23 L25,16 L27,16 Z M27,8 L27,15 L25,15 L25,8 L27,8 Z M27,1.999 L27,7 L25,7 L25,2 L19,2 L19,5.0885222e-16 L33,-3.97829917e-16 L33,2 L27,1.999 Z" fill="#001EE8" fill-rule="nonzero"></path>
        </g>
        <g id="Group-6" transform="translate(697.000000, 175.000000)">
            <rect id="Rectangle" fill-opacity="0.5" fill="#627AFF" x="0" y="0" width="64" height="25"></rect>
            <text id="10" font-family="Inter-Medium, Inter" font-size="12" font-weight="400" fill="#001EE8">
                <tspan x="38" y="17">10</tspan>
            </text>
            <path id="Line-2" d="M31,16 L33,16 L33,23 L39,23 L39,25 L25,25 L25,23 L31,23 L31,16 Z M33,8 L33,15 L31,15 L31,8 L33,8 Z M33,1.999 L33,7 L31,7 L31,2 L25,2 L25,5.0885222e-16 L39,-3.97829917e-16 L39,2 L33,1.999 Z" fill="#001EE8" fill-rule="nonzero"></path>
        </g>
        <g id="Group-3" transform="translate(119.500000, 31.000000)" fill="#001EE8">
            <text id="10" font-family="Inter-Medium, Inter" font-size="12" font-weight="400">
                <tspan x="6.5" y="16">10</tspan>
            </text>
            <path id="Line-2" d="M-0.5,15 L1.5,15 L1.5,22 L7.5,22 L7.5,24 L-6.5,24 L-6.5,22 L-0.5,22 L-0.5,15 Z M1.5,7 L1.5,14 L-0.5,14 L-0.5,7 L1.5,7 Z M1.5,0.999 L1.5,6 L-0.5,6 L-0.5,1 L-6.5,1 L-6.5,-1 L-0.5,-0.999 L-0.5,-1 L7.5,-1 L7.5,1 L1.5,0.999 Z" fill-rule="nonzero"></path>
        </g>
        <g id="Group" transform="translate(35.000000, 0.000000)" fill="#001EE8">
            <text id="30" font-family="Inter-Medium, Inter" font-size="12" font-weight="400">
                <tspan x="29" y="12">30</tspan>
            </text>
            <path id="Line-2" d="M74,26 L72,26 L72,20 L67,20 L67,18 L72,18 L72,12 L74,12 L74,26 Z M0.999,18 L2,18 L2,20 L1,20 L1,26 L-1,26 L-0.999,20 L-1,20 L-1,12 L1,12 L0.999,18 Z M66,18 L66,20 L59,20 L59,18 L66,18 Z M58,18 L58,20 L51,20 L51,18 L58,18 Z M50,18 L50,20 L43,20 L43,18 L50,18 Z M42,18 L42,20 L35,20 L35,18 L42,18 Z M34,18 L34,20 L27,20 L27,18 L34,18 Z M26,18 L26,20 L19,20 L19,18 L26,18 Z M18,18 L18,20 L11,20 L11,18 L18,18 Z M10,18 L10,20 L3,20 L3,18 L10,18 Z" fill-rule="nonzero"></path>
        </g>
        <g id="Group-2" transform="translate(1.000000, 31.000000)" fill="#001EE8">
            <text id="48" font-family="Inter-Medium, Inter" font-size="12" font-weight="400">
                <tspan x="0" y="64">48</tspan>
            </text>
            <path id="Line-2" d="M23,111 L23,117 L29,117 L29,119 L15,119 L15,117 L21,117 L21,111 L23,111 Z M23,103 L23,110 L21,110 L21,103 L23,103 Z M23,95 L23,102 L21,102 L21,95 L23,95 Z M23,87 L23,94 L21,94 L21,87 L23,87 Z M23,79 L23,86 L21,86 L21,79 L23,79 Z M23,71 L23,78 L21,78 L21,71 L23,71 Z M23,63 L23,70 L21,70 L21,63 L23,63 Z M23,55 L23,62 L21,62 L21,55 L23,55 Z M23,47 L23,54 L21,54 L21,47 L23,47 Z M23,39 L23,46 L21,46 L21,39 L23,39 Z M23,31 L23,38 L21,38 L21,31 L23,31 Z M23,23 L23,30 L21,30 L21,23 L23,23 Z M23,15 L23,22 L21,22 L21,15 L23,15 Z M23,7 L23,14 L21,14 L21,7 L23,7 Z M23,0.999 L23,6 L21,6 L21,1 L15,1 L15,-1 L21,-0.999 L21,-1 L29,-1 L29,1 L23,0.999 Z" fill-rule="nonzero"></path>
        </g>
        <g id="Group-10" transform="translate(35.000000, 160.500000)" fill="#001EE8">
            <text id="10" font-family="Inter-Medium, Inter" font-size="12" font-weight="400">
                <tspan x="5" y="16.5">10</tspan>
            </text>
            <path id="Line-2" d="M24,7.5 L22,7.5 L22,1.5 L17,1.5 L17,-0.5 L22,-0.5 L22,-6.5 L24,-6.5 L24,7.5 Z M1,-6.5 L1,-5.5 L1,6.5 L1,7.5 L-1,7.5 L-1,6.5 L-1,-5.5 L-1,-6.5 L1,-6.5 Z M16,-0.5 L16,1.5 L9,1.5 L9,-0.5 L16,-0.5 Z M8,-0.5 L8,1.5 L1,1.5 L1,-0.5 L8,-0.5 Z" fill-rule="nonzero"></path>
        </g>
        <rect id="Rectangle" fill-opacity="0.5" fill="#627AFF" x="166" y="55" width="58" height="25"></rect>
        <text id="10" font-family="Inter-Medium, Inter" font-size="12" font-weight="400" fill="#001EE8">
            <tspan x="201" y="72">10</tspan>
        </text>
        <rect id="Rectangle" fill-opacity="0.5" fill="#627AFF" x="805" y="150" width="64" height="25"></rect>
        <text id="10" font-family="Inter-Medium, Inter" font-size="12" font-weight="400" fill="#001EE8">
            <tspan x="843" y="167">10</tspan>
        </text>
        <line x1="994" y1="151" x2="7" y2="151" id="Line-2" stroke="#DF00F7" stroke-width="2" stroke-linecap="square" stroke-dasharray="5,3"></line>
        <line x1="900" y1="174" x2="90" y2="174" id="Line-2" stroke="#DF00F7" stroke-width="2" stroke-linecap="square" stroke-dasharray="5,3"></line>
        <path id="Line-2" d="M836,166 L838,166 L838,173 L844,173 L844,175 L830,175 L830,173 L836,173 L836,166 Z M838,158 L838,165 L836,165 L836,158 L838,158 Z M844,150 L844,152 L838,152 L838,157 L836,157 L836,152 L830,152 L830,150 L844,150 Z" fill="#001EE8" fill-rule="nonzero"></path>
        <line x1="994" y1="79" x2="60" y2="79" id="Line-2" stroke="#DF00F7" stroke-width="2" stroke-linecap="square" stroke-dasharray="5,3" transform="translate(527.000000, 79.000000) scale(-1, 1) translate(-527.000000, -79.000000) "></line>
        <line x1="251" y1="56" x2="60" y2="56" id="Line-2" stroke="#DF00F7" stroke-width="2" stroke-linecap="square" stroke-dasharray="5,3" transform="translate(155.500000, 56.000000) scale(-1, 1) translate(-155.500000, -56.000000) "></line>
        <line x1="103" y1="207" x2="103" y2="101" id="Line-2" stroke="#DF00F7" stroke-width="2" stroke-linecap="square" stroke-dasharray="5,3" transform="translate(103.000000, 154.000000) scale(1, -1) translate(-103.000000, -154.000000) "></line>
        <path id="Line-2" d="M194,71 L196,71 L196,78 L202,78 L202,80 L188,80 L188,78 L194,78 L194,71 Z M196,63 L196,70 L194,70 L194,63 L196,63 Z M202,55 L202,57 L196,57 L196,62 L194,62 L194,57 L188,57 L188,55 L202,55 Z" fill="#001EE8" fill-rule="nonzero"></path>
        <line x1="924" y1="201" x2="90" y2="201" id="Line-2" stroke="#DF00F7" stroke-width="2" stroke-linecap="square" stroke-dasharray="5,3"></line>
    </g>
</svg>