<?xml version="1.0" encoding="UTF-8"?>
<svg width="644px" height="251px" viewBox="0 0 644 251" version="1.1" xmlns="http://www.w3.org/2000/svg" xmlns:xlink="http://www.w3.org/1999/xlink">
    <!-- Generator: Sketch 64 (93537) - https://sketch.com -->
    <title>specs-icon</title>
    <desc>Created with Sketch.</desc>
    <g id="specs-icon" stroke="none" stroke-width="1" fill="none" fill-rule="evenodd">
        <rect fill="#FFFFFF" x="0" y="0" width="644" height="251"></rect>
        <g id="icon-background-light" transform="translate(41.000000, 13.000000)" fill="#FFFFFF">
            <rect id="Rectangle" x="0" y="0" width="200" height="200" rx="40"></rect>
        </g>
        <line x1="144" y1="151.5" x2="643" y2="151.5" id="guide-grey-1" stroke="#D9D9D9" stroke-linecap="square"></line>
        <line x1="35" y1="75.5" x2="643" y2="75.5" id="guide-grey-2" stroke="#D9D9D9" stroke-linecap="square"></line>
        <line x1="35" y1="30.5" x2="643" y2="30.5" id="guide-grey-3" stroke="#D9D9D9" stroke-linecap="square"></line>
        <rect id="background-title" fill="#ADFFA3" x="106.5" y="76" width="70" height="75"></rect>
        <g id="icon-title-light" transform="translate(106.500000, 76.000000)" fill="#000000" fill-rule="nonzero">
            <path d="M38.75,73.9 C43.95,73.9 49.15,73.1333333 54.35,71.6 C59.55,70.0666667 64.15,67.8666667 68.15,65 L68.15,65 L68.15,36 L50.65,36 L50.65,55.2 C47.3166667,56.7333333 43.75,57.5 39.95,57.5 C36.0833333,57.5 32.65,56.65 29.65,54.95 C26.65,53.25 24.3166667,50.8833333 22.65,47.85 C20.9833333,44.8166667 20.15,41.3666667 20.15,37.5 C20.15,31.4333333 21.9833333,26.5833333 25.65,22.95 C29.3166667,19.3166667 34.15,17.5 40.15,17.5 C46.75,17.5 52.4166667,20.1 57.15,25.3 L57.15,25.3 L69.75,13.9 C66.2833333,9.76666667 61.95,6.6 56.75,4.4 C51.55,2.2 45.6833333,1.1 39.15,1.1 C31.6833333,1.1 24.9833333,2.65 19.05,5.75 C13.1166667,8.85 8.48333333,13.1666667 5.15,18.7 C1.81666667,24.2333333 0.15,30.5 0.15,37.5 C0.15,44.5 1.81666667,50.7666667 5.15,56.3 C8.48333333,61.8333333 13.0833333,66.15 18.95,69.25 C24.8166667,72.35 31.4166667,73.9 38.75,73.9 Z" id="G"></path>
        </g>
        <g id="decoration-left" transform="translate(59.000000, 31.000000)" fill="#FED91F" fill-rule="nonzero">
            <polygon id="raw-decoration-left" points="75 0 75 25 25 25 25 120 0 120 0 0"></polygon>
        </g>
        <g id="decoration-right" transform="translate(149.000000, 76.000000)" fill="#FED91F" fill-rule="nonzero">
            <polygon id="raw-decoration-right" points="75 0 75 120 0 120 0 95 50 95 50 0"></polygon>
        </g>
        <g id="Group-5" transform="translate(83.500000, 123.000000)">
            <rect id="Rectangle" fill-opacity="0.5" fill="#627AFF" x="0.5" y="0" width="22.5" height="28"></rect>
            <text id="9" font-family="Inter-Medium, Inter" font-size="12" font-weight="400" fill="#001EE8">
                <tspan x="8" y="25">9</tspan>
            </text>
            <path id="Line" d="M2.5,3 L2.5,9 L7.5,9 L7.5,11 L2.5,11 L2.5,17 L0.5,17 L0.5,3 L2.5,3 Z M23,17 L21,17 L21,11 L16.5,11 L16.5,9 L21,9 L21,3 L23,3 L23,17 Z M15.5,9 L15.5,11 L8.5,11 L8.5,9 L15.5,9 Z" fill="#001EE8" fill-rule="nonzero"></path>
        </g>
        <g id="Group-6" transform="translate(176.500000, 123.000000)">
            <rect id="Rectangle" fill-opacity="0.5" fill="#627AFF" x="0" y="0" width="22.5" height="28"></rect>
            <text id="9" font-family="Inter-Medium, Inter" font-size="12" font-weight="400" fill="#001EE8">
                <tspan x="7" y="25">9</tspan>
            </text>
            <path id="Line" d="M2,3 L2,9 L7,9 L7,11 L2,11 L2,17 L0,17 L0,3 L2,3 Z M22.5,17 L20.5,17 L20.5,11 L16,11 L16,9 L20.5,9 L20.5,3 L22.5,3 L22.5,17 Z M15,9 L15,11 L8,11 L8,9 L15,9 Z" fill="#001EE8" fill-rule="nonzero"></path>
        </g>
        <g id="Group-3" transform="translate(1.000000, 14.000000)" fill="#001EE8">
            <text id="80" font-family="Inter-Medium, Inter" font-size="12" font-weight="400">
                <tspan x="0" y="104">80</tspan>
            </text>
            <path id="Line-3" d="M22.5,191 L22.5,197 L28.5,197 L28.5,199 L14.5,199 L14.5,197 L20.5,197 L20.5,191 L22.5,191 Z M22.5,183 L22.5,190 L20.5,190 L20.5,183 L22.5,183 Z M22.5,175 L22.5,182 L20.5,182 L20.5,175 L22.5,175 Z M22.5,167 L22.5,174 L20.5,174 L20.5,167 L22.5,167 Z M22.5,159 L22.5,166 L20.5,166 L20.5,159 L22.5,159 Z M22.5,151 L22.5,158 L20.5,158 L20.5,151 L22.5,151 Z M22.5,143 L22.5,150 L20.5,150 L20.5,143 L22.5,143 Z M22.5,135 L22.5,142 L20.5,142 L20.5,135 L22.5,135 Z M22.5,127 L22.5,134 L20.5,134 L20.5,127 L22.5,127 Z M22.5,119 L22.5,126 L20.5,126 L20.5,119 L22.5,119 Z M22.5,111 L22.5,118 L20.5,118 L20.5,111 L22.5,111 Z M22.5,103 L22.5,110 L20.5,110 L20.5,103 L22.5,103 Z M22.5,95 L22.5,102 L20.5,102 L20.5,95 L22.5,95 Z M22.5,87 L22.5,94 L20.5,94 L20.5,87 L22.5,87 Z M22.5,79 L22.5,86 L20.5,86 L20.5,79 L22.5,79 Z M22.5,71 L22.5,78 L20.5,78 L20.5,71 L22.5,71 Z M22.5,63 L22.5,70 L20.5,70 L20.5,63 L22.5,63 Z M22.5,55 L22.5,62 L20.5,62 L20.5,55 L22.5,55 Z M22.5,47 L22.5,54 L20.5,54 L20.5,47 L22.5,47 Z M22.5,39 L22.5,46 L20.5,46 L20.5,39 L22.5,39 Z M22.5,31 L22.5,38 L20.5,38 L20.5,31 L22.5,31 Z M22.5,23 L22.5,30 L20.5,30 L20.5,23 L22.5,23 Z M22.5,15 L22.5,22 L20.5,22 L20.5,15 L22.5,15 Z M22.5,7 L22.5,14 L20.5,14 L20.5,7 L22.5,7 Z M22.5,0.999 L22.5,6 L20.5,6 L20.5,1 L14.5,1 L14.5,-1 L20.5,-0.999 L20.5,-1 L28.5,-1 L28.5,1 L22.5,0.999 Z" fill-rule="nonzero"></path>
        </g>
        <g id="Group-10" transform="translate(42.000000, 231.000000)" fill="#001EE8">
            <text id="80" font-family="Inter-Medium, Inter" font-size="12" font-weight="400">
                <tspan x="91" y="16">80</tspan>
            </text>
            <path id="Line" d="M1,-6.5 L1,-0.5 L6,-0.5 L6,1.5 L1,1.5 L1,7.5 L-1,7.5 L-1,-6.5 L1,-6.5 Z M199,-6.5 L199,7.5 L197,7.5 L197,1.5 L191,1.5 L191,-0.5 L197,-0.5 L197,-6.5 L199,-6.5 Z M14,-0.5 L14,1.5 L7,1.5 L7,-0.5 L14,-0.5 Z M22,-0.5 L22,1.5 L15,1.5 L15,-0.5 L22,-0.5 Z M30,-0.5 L30,1.5 L23,1.5 L23,-0.5 L30,-0.5 Z M38,-0.5 L38,1.5 L31,1.5 L31,-0.5 L38,-0.5 Z M46,-0.5 L46,1.5 L39,1.5 L39,-0.5 L46,-0.5 Z M54,-0.5 L54,1.5 L47,1.5 L47,-0.5 L54,-0.5 Z M62,-0.5 L62,1.5 L55,1.5 L55,-0.5 L62,-0.5 Z M70,-0.5 L70,1.5 L63,1.5 L63,-0.5 L70,-0.5 Z M78,-0.5 L78,1.5 L71,1.5 L71,-0.5 L78,-0.5 Z M86,-0.5 L86,1.5 L79,1.5 L79,-0.5 L86,-0.5 Z M94,-0.5 L94,1.5 L87,1.5 L87,-0.5 L94,-0.5 Z M102,-0.5 L102,1.5 L95,1.5 L95,-0.5 L102,-0.5 Z M110,-0.5 L110,1.5 L103,1.5 L103,-0.5 L110,-0.5 Z M118,-0.5 L118,1.5 L111,1.5 L111,-0.5 L118,-0.5 Z M126,-0.5 L126,1.5 L119,1.5 L119,-0.5 L126,-0.5 Z M134,-0.5 L134,1.5 L127,1.5 L127,-0.5 L134,-0.5 Z M142,-0.5 L142,1.5 L135,1.5 L135,-0.5 L142,-0.5 Z M150,-0.5 L150,1.5 L143,1.5 L143,-0.5 L150,-0.5 Z M158,-0.5 L158,1.5 L151,1.5 L151,-0.5 L158,-0.5 Z M166,-0.5 L166,1.5 L159,1.5 L159,-0.5 L166,-0.5 Z M174,-0.5 L174,1.5 L167,1.5 L167,-0.5 L174,-0.5 Z M182,-0.5 L182,1.5 L175,1.5 L175,-0.5 L182,-0.5 Z M190,-0.5 L190,1.5 L183,1.5 L183,-0.5 L190,-0.5 Z" fill-rule="nonzero"></path>
        </g>
        <rect id="border-background" stroke="#000000" x="41" y="13" width="200" height="200" rx="40"></rect>
        <g id="Group-2" transform="translate(106.500000, 56.000000)">
            <rect id="Rectangle" fill-opacity="0.5" fill="#627AFF" x="0" y="0" width="27.5" height="20"></rect>
            <path id="Line-3" d="M3,20 L3,18 L8.999,18 L9,16 L11,16 L10.999,18 L17,18 L17,20 L3,20 Z M11,8 L11,15 L9,15 L9,8 L11,8 Z M10.999,1.999 L11,7 L9,7 L8.999,2 L3,2 L3,5.0885222e-16 L17,-3.97829917e-16 L17,2 L10.999,1.999 Z" fill="#001EE8" fill-rule="nonzero"></path>
            <text id="8" font-family="Inter-Medium, Inter" font-size="12" font-weight="400" fill="#001EE8">
                <tspan x="18" y="15">8</tspan>
            </text>
        </g>
        <g id="Group-8" transform="translate(149.000000, 151.000000)">
            <rect id="Rectangle" fill-opacity="0.5" fill="#627AFF" x="0" y="0" width="27.5" height="20"></rect>
            <text id="8" font-family="Inter-Medium, Inter" font-size="12" font-weight="400" fill="#001EE8">
                <tspan x="18.5" y="15">8</tspan>
            </text>
            <path id="Line-3" d="M3.5,20 L3.5,18 L9.499,18 L9.5,16 L11.5,16 L11.499,18 L17.5,18 L17.5,20 L3.5,20 Z M11.5,8 L11.5,15 L9.5,15 L9.5,8 L11.5,8 Z M11.499,1.999 L11.5,7 L9.5,7 L9.499,2 L3.5,2 L3.5,5.0885222e-16 L17.5,-3.97829917e-16 L17.5,2 L11.499,1.999 Z" fill="#001EE8" fill-rule="nonzero"></path>
        </g>
        <g id="Circle" transform="translate(161.000000, 13.000000)">
            <path d="M40,80.5 C62.09139,80.5 80,62.59139 80,40.5 C80,18.40861 62.09139,0.5 40,0.5 C17.90861,0.5 0,18.40861 0,40.5 C0,62.59139 17.90861,80.5 40,80.5 Z" id="Oval" stroke="#DF00F7" stroke-width="2" fill-opacity="0.25" fill="#E600FF" stroke-dasharray="5,3"></path>
            <text id="16" transform="translate(44.000000, 24.000000) rotate(-45.000000) translate(-44.000000, -24.000000) " font-family="Inter-Medium, Inter" font-size="12" font-weight="400" fill="#001EE8">
                <tspan x="37" y="28.5">16</tspan>
            </text>
            <path id="Line-2" d="M43.2475037,35.9824931 L44.6351681,37.4227666 L43.9150314,38.1165988 L40.6938322,41.2201367 L39.9736955,41.9139689 L38.5860311,40.4736955 L39.3061678,39.7798633 L42.527367,36.6763253 L43.2475037,35.9824931 Z M49.0085975,30.4318357 L50.3962619,31.8721091 L49.6761252,32.5659413 L46.0754415,36.0351022 L45.3553048,36.7289344 L43.9676404,35.288661 L44.6877772,34.5948288 L48.2884608,31.1256679 L49.0085975,30.4318357 Z M54.7696913,24.8811782 L56.1573557,26.3214517 L55.4372189,27.0152838 L51.8365353,30.4844448 L51.1163986,31.1782769 L49.7287342,29.7380035 L50.448871,29.0441713 L54.0495546,25.5750104 L54.7696913,24.8811782 Z M68.9946973,12.5643963 L68.4835959,14.2671204 L64.5253224,27.4540295 L64.2378279,28.4118118 L62.3222634,27.8368227 L62.6097579,26.8790404 L65.471,17.347 L63.3587229,19.3831298 L62.6385862,20.076962 L61.2509218,18.6366886 L61.9710585,17.9428564 L64.082,15.908 L54.4524777,18.4125018 L53.4846651,18.6641738 L52.9813211,16.7285486 L53.9491337,16.4768766 L67.2741416,13.0118133 L68.9946973,12.5643963 Z M60.5307851,19.3305207 L61.9184495,20.7707942 L61.1983127,21.4646264 L59.5964004,23.0080255 L57.5976291,24.9337873 L56.8774924,25.6276195 L55.489828,24.187346 L56.2099648,23.4935138 L58.208736,21.567752 L59.8106484,20.0243529 L60.5307851,19.3305207 Z" fill="#001EE8" fill-rule="nonzero"></path>
            <circle id="Oval" fill="#DF00F7" cx="40" cy="40.5" r="3"></circle>
        </g>
        <g id="Group-4" transform="translate(41.000000, 123.000000)">
            <rect id="Rectangle" fill-opacity="0.5" fill="#627AFF" x="0.5" y="0" width="17.5" height="28"></rect>
            <text id="7" font-family="Inter-Medium, Inter" font-size="12" font-weight="400" fill="#001EE8">
                <tspan x="5.5" y="25">7</tspan>
            </text>
            <path id="Line" d="M2.5,3 L2.5,9 L7.5,9 L7.5,11 L2.5,11 L2.5,17 L0.5,17 L0.5,3 L2.5,3 Z M18,3 L18,17 L16,17 L16,3 L18,3 Z M15.5,9 L15.5,11 L8.5,11 L8.5,9 L15.5,9 Z" fill="#001EE8" fill-rule="nonzero"></path>
        </g>
        <g id="Group-7" transform="translate(224.000000, 123.000000)">
            <rect id="Rectangle" fill-opacity="0.5" fill="#627AFF" x="0" y="0" width="17.5" height="28"></rect>
            <text id="7" font-family="Inter-Medium, Inter" font-size="12" font-weight="400" fill="#001EE8">
                <tspan x="6" y="25">7</tspan>
            </text>
            <path id="Line" d="M2,3 L2,9 L7,9 L7,11 L2,11 L2,17 L0,17 L0,3 L2,3 Z M17.5,3 L17.5,17 L15.5,17 L15.5,3 L17.5,3 Z M15,9 L15,11 L8,11 L8,9 L15,9 Z" fill="#001EE8" fill-rule="nonzero"></path>
        </g>
        <g id="Group-9" transform="translate(149.000000, 196.000000)">
            <rect id="Rectangle" fill-opacity="0.5" fill="#627AFF" x="0.5" y="0" width="28" height="17.5"></rect>
            <path id="Line-3" d="M18,15.5 L18,17.5 L4,17.5 L4,15.5 L18,15.5 Z M12,8 L12,15 L10,15 L10,8 L12,8 Z M12,1.999 L12,7 L10,7 L10,2 L4,2 L4,5.0885222e-16 L18,-3.97829917e-16 L18,2 L12,1.999 Z" fill="#001EE8" fill-rule="nonzero"></path>
            <text id="7" font-family="Inter-Medium, Inter" font-size="12" font-weight="400" fill="#001EE8">
                <tspan x="19" y="13">7</tspan>
            </text>
        </g>
        <g id="Group" transform="translate(106.000000, 12.500000)">
            <rect id="Rectangle" fill-opacity="0.5" fill="#627AFF" x="0" y="0" width="28" height="17.5"></rect>
            <text id="7" font-family="Inter-Medium, Inter" font-size="12" font-weight="400" fill="#001EE8">
                <tspan x="18.5" y="13.5">7</tspan>
            </text>
            <path id="Line-3" d="M17.5,15.5 L17.5,17.5 L3.5,17.5 L3.5,15.5 L17.5,15.5 Z M11.5,8 L11.5,15 L9.5,15 L9.5,8 L11.5,8 Z M11.5,1.999 L11.5,7 L9.5,7 L9.5,2 L3.5,2 L3.5,5.0885222e-16 L17.5,-3.97829917e-16 L17.5,2 L11.5,1.999 Z" fill="#001EE8" fill-rule="nonzero"></path>
        </g>
        <line x1="35" y1="152" x2="142" y2="152" id="guide-purple-1" stroke="#DF00F7" stroke-width="2" stroke-linecap="square" stroke-dasharray="5,3"></line>
        <line x1="142" y1="75" x2="249" y2="75" id="guide-purple-2" stroke="#DF00F7" stroke-width="2" stroke-linecap="square" stroke-dasharray="5,3"></line>
        <g id="detail-title" transform="translate(503.000000, 76.000000)">
            <rect id="Rectangle" fill="#ADFFA3" x="34" y="0" width="70" height="75"></rect>
            <g id="icon-title-light" transform="translate(34.000000, 0.000000)" fill="#000000" fill-rule="nonzero">
                <path d="M38.75,73.9 C43.95,73.9 49.15,73.1333333 54.35,71.6 C59.55,70.0666667 64.15,67.8666667 68.15,65 L68.15,65 L68.15,36 L50.65,36 L50.65,55.2 C47.3166667,56.7333333 43.75,57.5 39.95,57.5 C36.0833333,57.5 32.65,56.65 29.65,54.95 C26.65,53.25 24.3166667,50.8833333 22.65,47.85 C20.9833333,44.8166667 20.15,41.3666667 20.15,37.5 C20.15,31.4333333 21.9833333,26.5833333 25.65,22.95 C29.3166667,19.3166667 34.15,17.5 40.15,17.5 C46.75,17.5 52.4166667,20.1 57.15,25.3 L57.15,25.3 L69.75,13.9 C66.2833333,9.76666667 61.95,6.6 56.75,4.4 C51.55,2.2 45.6833333,1.1 39.15,1.1 C31.6833333,1.1 24.9833333,2.65 19.05,5.75 C13.1166667,8.85 8.48333333,13.1666667 5.15,18.7 C1.81666667,24.2333333 0.15,30.5 0.15,37.5 C0.15,44.5 1.81666667,50.7666667 5.15,56.3 C8.48333333,61.8333333 13.0833333,66.15 18.95,69.25 C24.8166667,72.35 31.4166667,73.9 38.75,73.9 Z" id="G"></path>
            </g>
            <text id="28" font-family="Inter-Medium, Inter" font-size="12" font-weight="400" fill="#001EE8">
                <tspan x="62" y="103">28</tspan>
            </text>
            <text id="30" font-family="Inter-Medium, Inter" font-size="12" font-weight="400" fill="#001EE8">
                <tspan x="0" y="42">30</tspan>
            </text>
            <path id="Line" d="M102.050776,81.4856914 L104.050724,81.5001838 L104.043478,82.5001575 L103.993,89.463 L103.992754,89.4999737 L103.956523,94.4998425 L103.949277,95.4998162 L101.94933,95.4853239 L101.956576,94.4853501 L101.992,89.485 L98.9910736,89.4637297 L97.9910998,89.4564835 L98.0055922,87.456536 L99.0055659,87.4637822 L102.007,87.485 L102.04353,82.4856652 L102.050776,81.4856914 Z M34.0507496,80.9929376 L36.0506971,81.00743 L36.0434509,82.0074037 L36.007,87.007 L40.0071149,87.0362572 L41.0070887,87.0435034 L40.9925963,89.0434509 L39.9926225,89.0362047 L35.992,89.006 L35.9564966,94.0070887 L35.9492504,95.0070624 L33.9493029,94.99257 L33.9565491,93.9925963 L34.0435034,81.9929113 L34.0507496,80.9929376 Z M90.0058022,87.3985665 L91.005776,87.4058127 L96.0056447,87.4420436 L97.0056184,87.4492898 L96.9911261,89.4492373 L95.9911523,89.4419911 L90.9912836,89.4057602 L89.9913098,89.398514 L90.0058022,87.3985665 Z M82.0060123,87.340597 L83.005986,87.3478432 L88.0058547,87.3840741 L89.0058285,87.3913203 L88.9913361,89.3912678 L87.9913624,89.3840216 L82.9914936,89.3477907 L81.9915199,89.3405445 L82.0060123,87.340597 Z M74.0062223,87.2826275 L75.006196,87.2898737 L80.0060648,87.3261046 L81.0060385,87.3333508 L80.9915461,89.3332983 L79.9915724,89.3260521 L74.9917037,89.2898212 L73.9917299,89.282575 L74.0062223,87.2826275 Z M66.0064323,87.224658 L67.0064061,87.2319042 L72.0062748,87.2681352 L73.0062485,87.2753813 L72.9917562,89.2753288 L71.9917824,89.2680826 L66.9919137,89.2318517 L65.9919399,89.2246055 L66.0064323,87.224658 Z M58.0066423,87.1666885 L59.0066161,87.1739347 L64.0064848,87.2101657 L65.0064586,87.2174119 L64.9919662,89.2173593 L63.9919924,89.2101132 L58.9921237,89.1738822 L57.99215,89.166636 L58.0066423,87.1666885 Z M50.0068524,87.1087191 L51.0068261,87.1159652 L56.0066949,87.1521962 L57.0066686,87.1594424 L56.9921762,89.1593899 L55.9922025,89.1521437 L50.9923338,89.1159127 L49.99236,89.1086665 L50.0068524,87.1087191 Z M42.0070624,87.0507496 L43.0070362,87.0579957 L48.0069049,87.0942267 L49.0068786,87.1014729 L48.9923863,89.1014204 L47.9924125,89.0941742 L42.9925438,89.0579432 L41.99257,89.0506971 L42.0070624,87.0507496 Z" fill="#001EE8" fill-rule="nonzero"></path>
            <path id="Line" d="M14,75 L14,73 L20,73 L20,68 L22,68 L22,73 L28,73 L28,75 L14,75 Z M22,60 L22,67 L20,67 L20,60 L22,60 Z M22,52 L22,59 L20,59 L20,52 L22,52 Z M22,44 L22,51 L20,51 L20,44 L22,44 Z M22,36 L22,43 L20,43 L20,36 L22,36 Z M22,28 L22,35 L20,35 L20,28 L22,28 Z M22,20 L22,27 L20,27 L20,20 L22,20 Z M22,12 L22,19 L20,19 L20,12 L22,12 Z M22,4 L22,11 L20,11 L20,4 L22,4 Z M22,2 L22,3 L20,3 L20,1.999 L14,2 L14,-3.97829917e-16 L28,5.0885222e-16 L28,2 L22,2 Z" fill="#001EE8" fill-rule="nonzero"></path>
        </g>
        <g id="detail-decoration" transform="translate(324.000000, 1.000000)">
            <g id="decoration-left" transform="translate(33.000000, 30.000000)" fill="#FED91F" fill-rule="nonzero">
                <polygon id="raw-decoration-left" points="75 0 75 25 25 25 25 120 0 120 0 0"></polygon>
            </g>
            <g id="Group-3" transform="translate(118.500000, 31.000000)" fill="#001EE8">
                <text id="10" font-family="Inter-Medium, Inter" font-size="12" font-weight="400">
                    <tspan x="6.5" y="16">10</tspan>
                </text>
                <path id="Line-2" d="M-0.5,15 L1.5,15 L1.5,22 L7.5,22 L7.5,24 L-6.5,24 L-6.5,22 L-0.5,22 L-0.5,15 Z M1.5,7 L1.5,14 L-0.5,14 L-0.5,7 L1.5,7 Z M1.5,0.999 L1.5,6 L-0.5,6 L-0.5,1 L-6.5,1 L-6.5,-1 L-0.5,-0.999 L-0.5,-1 L7.5,-1 L7.5,1 L1.5,0.999 Z" fill-rule="nonzero"></path>
            </g>
            <g id="Group" transform="translate(34.000000, 0.000000)" fill="#001EE8">
                <text id="30" font-family="Inter-Medium, Inter" font-size="12" font-weight="400">
                    <tspan x="29" y="12">30</tspan>
                </text>
                <path id="Line-2" d="M74,26 L72,26 L72,20 L67,20 L67,18 L72,18 L72,12 L74,12 L74,26 Z M0.999,18 L2,18 L2,20 L1,20 L1,26 L-1,26 L-0.999,20 L-1,20 L-1,12 L1,12 L0.999,18 Z M66,18 L66,20 L59,20 L59,18 L66,18 Z M58,18 L58,20 L51,20 L51,18 L58,18 Z M50,18 L50,20 L43,20 L43,18 L50,18 Z M42,18 L42,20 L35,20 L35,18 L42,18 Z M34,18 L34,20 L27,20 L27,18 L34,18 Z M26,18 L26,20 L19,20 L19,18 L26,18 Z M18,18 L18,20 L11,20 L11,18 L18,18 Z M10,18 L10,20 L3,20 L3,18 L10,18 Z" fill-rule="nonzero"></path>
            </g>
            <g id="Group-2" transform="translate(0.000000, 31.000000)" fill="#001EE8">
                <text id="48" font-family="Inter-Medium, Inter" font-size="12" font-weight="400">
                    <tspan x="0" y="64">48</tspan>
                </text>
                <path id="Line-2" d="M23,111 L23,117 L29,117 L29,119 L15,119 L15,117 L21,117 L21,111 L23,111 Z M23,103 L23,110 L21,110 L21,103 L23,103 Z M23,95 L23,102 L21,102 L21,95 L23,95 Z M23,87 L23,94 L21,94 L21,87 L23,87 Z M23,79 L23,86 L21,86 L21,79 L23,79 Z M23,71 L23,78 L21,78 L21,71 L23,71 Z M23,63 L23,70 L21,70 L21,63 L23,63 Z M23,55 L23,62 L21,62 L21,55 L23,55 Z M23,47 L23,54 L21,54 L21,47 L23,47 Z M23,39 L23,46 L21,46 L21,39 L23,39 Z M23,31 L23,38 L21,38 L21,31 L23,31 Z M23,23 L23,30 L21,30 L21,23 L23,23 Z M23,15 L23,22 L21,22 L21,15 L23,15 Z M23,7 L23,14 L21,14 L21,7 L23,7 Z M23,0.999 L23,6 L21,6 L21,1 L15,1 L15,-1 L21,-0.999 L21,-1 L29,-1 L29,1 L23,0.999 Z" fill-rule="nonzero"></path>
            </g>
            <g id="Group-10" transform="translate(34.000000, 160.500000)" fill="#001EE8">
                <text id="10" font-family="Inter-Medium, Inter" font-size="12" font-weight="400">
                    <tspan x="5" y="16.5">10</tspan>
                </text>
                <path id="Line-2" d="M24,7.5 L22,7.5 L22,1.5 L17,1.5 L17,-0.5 L22,-0.5 L22,-6.5 L24,-6.5 L24,7.5 Z M1,-6.5 L1,-5.5 L1,6.5 L1,7.5 L-1,7.5 L-1,6.5 L-1,-5.5 L-1,-6.5 L1,-6.5 Z M16,-0.5 L16,1.5 L9,1.5 L9,-0.5 L16,-0.5 Z M8,-0.5 L8,1.5 L1,1.5 L1,-0.5 L8,-0.5 Z" fill-rule="nonzero"></path>
            </g>
        </g>
    </g>
</svg>