<?xml version="1.0" encoding="UTF-8"?>
<svg width="20px" height="20px" viewBox="0 0 20 20" version="1.1" xmlns="http://www.w3.org/2000/svg" xmlns:xlink="http://www.w3.org/1999/xlink">
    <title>clipboard-white</title>
    <g id="Page-1" stroke="none" stroke-width="1" fill="none" fill-rule="evenodd">
        <g id="clipboard-white" fill="#EBEBEB">
            <path d="M4,16 L1,16 C0.52,16 0,15.621 0,15 L0,1 C0,0.519 0.38,0 1,0 L15,0 C15.621,0 16,0.522 16,1 L16,4 L19,4 C19.621,4 20,4.522 20,5 L20,19 C20,19.621 19.478,20 19,20 L5,20 C4.52,20 4,19.621 4,19 L4,16 Z M5.5,5.5 L5.5,18.5 L18.5,18.5 L18.5,5.5 L5.5,5.5 Z M14.5,4 L14.5,1.5 L1.5,1.5 L1.5,14.5 L4,14.5 L4,5 C4,4.519 4.38,4 5,4 L14.5,4 Z" id="Shape"></path>
        </g>
    </g>
</svg>