<?xml version="1.0" encoding="UTF-8"?>
<svg width="22px" height="27px" viewBox="0 0 22 27" version="1.1" xmlns="http://www.w3.org/2000/svg" xmlns:xlink="http://www.w3.org/1999/xlink">
    <title>Shape</title>
    <g id="Page-1" stroke="none" stroke-width="1" fill="none" fill-rule="evenodd">
        <g id="Artboard" transform="translate(-1197.000000, -3864.000000)" fill="#EBEBEB" fill-rule="nonzero">
            <g id="section-4-contact" transform="translate(0.000000, 3732.000000)">
                <g id="email-address" transform="translate(951.000000, 120.000000)">
                    <g id="clipboard-icon" transform="translate(246.000000, 12.000000)">
                        <path d="M1.46277745,2.81712379 L4.97387547,2.81712379 L4.97387547,5.12444047 L3.4592418,5.12444047 C2.7829503,5.12444047 2.2233353,5.69357858 2.2233353,6.38137869 L2.2233353,23.6159355 C2.2233353,24.3037357 2.78078963,24.8728738 3.4592418,24.8728738 L18.5407582,24.8728738 C19.2192104,24.8728738 19.7766647,24.3059331 19.7766647,23.6159355 L19.7766647,6.38137869 C19.7766647,5.69138113 19.2170497,5.12444047 18.5407582,5.12444047 L17.0261245,5.12444047 L17.0261245,2.81712379 L20.5372225,2.81712379 C21.3431546,2.81712379 22,3.49173924 22,4.30479368 L22,25.5123301 C22,26.327582 21.3388332,27 20.5372225,27 L1.46277745,27 C0.661166765,27 0,26.3297794 0,25.5123301 L0,4.30479368 C0,3.4851469 0.659006089,2.81712379 1.46277745,2.81712379 L1.46277745,2.81712379 Z M8.16519348,21.0712949 C7.73089766,21.0712949 7.37870752,20.7131114 7.37870752,20.2714251 C7.37870752,19.8297387 7.73089766,19.4715553 8.16519348,19.4715553 L13.8348065,19.4715553 C14.2691023,19.4715553 14.6212925,19.8297387 14.6212925,20.2714251 C14.6212925,20.7131114 14.2691023,21.0712949 13.8348065,21.0712949 L8.16519348,21.0712949 L8.16519348,21.0712949 Z M6.48850913,16.241312 C6.05421332,16.241312 5.70202318,15.8831285 5.70202318,15.4414422 C5.70202318,14.9997558 6.05421332,14.6415724 6.48850913,14.6415724 L15.5114909,14.6415724 C15.9457867,14.6415724 16.2979768,14.9997558 16.2979768,15.4414422 C16.2979768,15.8831285 15.9457867,16.241312 15.5114909,16.241312 L6.48850913,16.241312 L6.48850913,16.241312 Z M5.01276763,11.4135265 C4.57847181,11.4135265 4.22628167,11.055343 4.22628167,10.6136567 C4.22628167,10.1719704 4.57847181,9.81378693 5.01276763,9.81378693 L16.9915537,9.81378693 C17.4258495,9.81378693 17.7780397,10.1719704 17.7780397,10.6136567 C17.7780397,11.055343 17.4258495,11.4135265 16.9915537,11.4135265 L5.01276763,11.4135265 L5.01276763,11.4135265 Z M7.00058928,2.07878245 L8.65998821,2.07878245 C8.80043214,0.907544559 9.73168336,0 10.8595561,0 C11.9809468,0 12.905716,0.894359893 13.0569633,2.05461056 L14.9994107,2.07878245 C15.1355333,2.07878245 15.2435671,2.18865468 15.2435671,2.32709368 L15.2435671,5.69577602 C15.2435671,5.83421502 15.1355333,5.94408725 14.9994107,5.94408725 L7.00491063,5.94408725 C6.87310941,5.94408725 6.76075427,5.83421502 6.76075427,5.69577602 L6.76075427,2.32709368 C6.75643292,2.19085212 6.86662738,2.07878245 7.00058928,2.07878245 L7.00058928,2.07878245 L7.00058928,2.07878245 L7.00058928,2.07878245 Z M9.95207228,3.09839668 C10.1011589,3.3071539 10.3172265,3.51371368 10.5440974,3.61919101 C10.7299155,3.67632457 10.9330191,3.68071946 11.1209978,3.62798079 C11.4148497,3.48954179 11.6870949,3.15772768 11.8124141,2.88084968 C11.8275388,2.80174168 11.8361815,2.72043623 11.8361815,2.63253846 C11.8361815,2.04582079 11.393243,1.56897534 10.8487527,1.56897534 C10.3021017,1.56897534 9.8613239,2.04582079 9.8613239,2.63253846 C9.8613239,2.8127289 9.89373404,2.96874746 9.95207228,3.09839668 L9.95207228,3.09839668 L9.95207228,3.09839668 L9.95207228,3.09839668 Z" id="Shape"></path>
                    </g>
                </g>
            </g>
        </g>
    </g>
</svg>