<?xml version="1.0" encoding="UTF-8"?>
<svg width="2448px" height="2453px" viewBox="0 0 2448 2453" version="1.1" xmlns="http://www.w3.org/2000/svg" xmlns:xlink="http://www.w3.org/1999/xlink">
    <title>slack-black</title>
    <g id="Page-1" stroke="none" stroke-width="1" fill="none" fill-rule="evenodd">
        <g id="slack-black" transform="translate(-0.000546, 0.000000)" fill="#000000" fill-rule="nonzero">
            <path d="M897.400546,0 C762.100546,0.1 652.600546,109.9 652.700477,245.2 C652.600546,380.5 762.200546,490.3 897.500546,490.4 L1142.30061,490.4 L1142.30061,245.3 C1142.40055,110 1032.80055,0.2 897.400546,0 C897.500546,0 897.500546,0 897.400546,0 M897.400546,654 L244.800546,654 C109.500546,654.1 -0.0994541705,763.9 0.000272541849,899.2 C-0.199454171,1034.5 109.400546,1144.3 244.700546,1144.5 L897.400546,1144.5 C1032.70055,1144.4 1142.30055,1034.6 1142.20061,899.3 C1142.30055,763.9 1032.70055,654.1 897.400546,654 Z" id="Shape"></path>
            <path d="M2447.60061,899.2 C2447.70055,763.9 2338.10055,654.1 2202.80055,654 C2067.50055,654.1 1957.90055,763.9 1958.00048,899.2 L1958.00048,1144.5 L2202.80055,1144.5 C2338.10055,1144.4 2447.70055,1034.6 2447.60061,899.2 Z M1794.90061,899.2 L1794.90061,245.2 C1795.00055,110 1685.50055,0.2 1550.20055,0 C1414.90055,0.1 1305.30055,109.9 1305.40027,245.2 L1305.40027,899.2 C1305.20055,1034.5 1414.80055,1144.3 1550.10055,1144.5 C1685.40055,1144.4 1795.00055,1034.6 1794.90061,899.2 Z" id="Shape"></path>
            <path d="M1550.10055,2452.5 C1685.40055,2452.4 1795.00055,2342.6 1794.90061,2207.3 C1795.00055,2072 1685.40055,1962.2 1550.10055,1962.1 L1305.30048,1962.1 L1305.30048,2207.3 C1305.20055,2342.5 1414.80055,2452.3 1550.10055,2452.5 Z M1550.10055,1798.4 L2202.80055,1798.4 C2338.10055,1798.3 2447.70055,1688.5 2447.60082,1553.2 C2447.80055,1417.9 2338.20055,1308.1 2202.90055,1307.9 L1550.20055,1307.9 C1414.90055,1308 1305.30055,1417.8 1305.40048,1553.1 C1305.30055,1688.5 1414.80055,1798.3 1550.10055,1798.4 L1550.10055,1798.4 Z" id="Shape"></path>
            <path d="M0.000477453225,1553.2 C-0.0994541705,1688.5 109.500546,1798.3 244.800546,1798.4 C380.100546,1798.3 489.700546,1688.5 489.600614,1553.2 L489.600614,1308 L244.800546,1308 C109.500546,1308.1 -0.0994541705,1417.9 0.000477453225,1553.2 Z M652.700273,1553.2 L652.700273,2207.2 C652.500546,2342.5 762.100546,2452.3 897.400546,2452.5 C1032.70055,2452.4 1142.30055,2342.6 1142.20082,2207.3 L1142.20082,1553.4 C1142.40055,1418.1 1032.80055,1308.3 897.500546,1308.1 C762.100546,1308.1 652.600546,1417.9 652.700273,1553.2 C652.700273,1553.2 652.700273,1553.3 652.700273,1553.2" id="Shape"></path>
        </g>
    </g>
</svg>