<?xml version="1.0" encoding="UTF-8"?>
<svg width="308px" height="308px" viewBox="0 0 308 308" version="1.1" xmlns="http://www.w3.org/2000/svg" xmlns:xlink="http://www.w3.org/1999/xlink">
    <title>whatsapp-white</title>
    <g id="Page-1" stroke="none" stroke-width="1" fill="none" fill-rule="evenodd">
        <g id="whatsapp-white" transform="translate(0.000232, 0.000000)" fill="#EBEBEB" fill-rule="nonzero">
            <path d="M227.903768,176.981 C227.303768,176.693 204.849768,165.636 200.859768,164.2 C199.230768,163.615 197.485768,163.044 195.629768,163.044 C192.597768,163.044 190.050768,164.555 188.066768,167.523 C185.823768,170.857 179.033768,178.794 176.935768,181.165 C176.661768,181.478 176.287768,181.852 176.063768,181.852 C175.862768,181.852 172.387768,180.421 171.335768,179.964 C147.248768,169.501 128.965768,144.34 126.458768,140.097 C126.100768,139.487 126.085768,139.21 126.082768,139.21 C126.170768,138.887 126.980768,138.075 127.398768,137.656 C128.621768,136.446 129.946768,134.851 131.228768,133.308 C131.835768,132.577 132.443768,131.845 133.040768,131.155 C134.900768,128.991 135.728768,127.311 136.688768,125.365 L137.191768,124.354 C139.535768,119.697 137.533768,115.767 136.886768,114.498 C136.355768,113.436 126.874768,90.554 125.866768,88.15 C123.442768,82.349 120.239768,79.648 115.788768,79.648 C115.375768,79.648 115.788768,79.648 114.056768,79.721 C111.947768,79.81 100.462768,81.322 95.3847678,84.523 C89.9997678,87.918 80.8897678,98.74 80.8897678,117.772 C80.8897678,134.901 91.7597678,151.074 96.4267678,157.225 C96.5427678,157.38 96.7557678,157.695 97.0647678,158.147 C114.937768,184.249 137.218768,203.593 159.805768,212.616 C181.550768,221.302 191.847768,222.306 197.701768,222.306 C197.702768,222.306 197.702768,222.306 197.702768,222.306 C200.162768,222.306 202.131768,222.113 203.868768,221.942 L204.970768,221.837 C212.482768,221.171 228.990768,212.617 232.745768,202.182 C235.703768,193.963 236.483768,184.983 234.515768,181.724 C233.167768,179.508 230.844768,178.393 227.903768,176.981 Z" id="XMLID_469_"></path>
            <path d="M156.733768,0 C73.3177678,0 5.45376782,67.354 5.45376782,150.143 C5.45376782,176.92 12.6197678,203.131 26.1947678,226.071 L0.211767816,302.716 C-0.272232184,304.145 0.0877678155,305.725 1.14476782,306.801 C1.90776782,307.58 2.94276782,308 3.99976782,308 C4.40476782,308 4.81276782,307.939 5.21076782,307.812 L85.1307678,282.416 C107.000768,294.101 131.718768,300.269 156.734768,300.269 C240.142768,300.27 307.999768,232.923 307.999768,150.143 C307.999768,67.354 240.142768,0 156.733768,0 Z M156.733768,268.994 C133.194768,268.994 110.395768,262.197 90.7977678,249.337 C90.1387678,248.904 89.3737678,248.682 88.6037678,248.682 C88.1967678,248.682 87.7887678,248.744 87.3917678,248.87 L47.3567678,261.596 L60.2807678,223.467 C60.6987678,222.233 60.4897678,220.872 59.7197678,219.82 C44.7957678,199.428 36.9067678,175.335 36.9067678,150.143 C36.9067678,84.6 90.6607678,31.276 156.732768,31.276 C222.796768,31.276 276.544768,84.6 276.544768,150.143 C276.544768,215.678 222.798768,268.994 156.733768,268.994 Z" id="XMLID_470_"></path>
        </g>
    </g>
</svg>