<?xml version="1.0" encoding="UTF-8"?>
<svg width="185px" height="181px" viewBox="0 0 185 181" version="1.1" xmlns="http://www.w3.org/2000/svg" xmlns:xlink="http://www.w3.org/1999/xlink">
    <title>openstack</title>
    <g id="Page-1" stroke="none" stroke-width="1" fill="none" fill-rule="evenodd" opacity="0.98">
        <g id="openstack" fill="#ED1944" fill-rule="nonzero">
            <g id="Group">
                <path d="M167.15,0 L17.15,0 C7.70628312,0.0274608221 0.0574608221,7.67628312 0.03,17.12 L0.03,57.47 L41.64,57.47 L41.64,50.88 C41.64,45.7658432 45.7858432,41.62 50.9,41.62 L133.43,41.62 C138.544157,41.62 142.69,45.7658432 142.69,50.88 L142.69,57.47 L184.33,57.47 L184.33,17.12 C184.296945,7.65518787 176.61487,0 167.15,0 L167.15,0 Z" id="Path"></path>
                <path d="M142.66,129.48 C142.654489,134.591872 138.511872,138.734489 133.4,138.74 L50.87,138.74 C45.7581279,138.734489 41.6155115,134.591872 41.61,129.48 L41.61,122.89 L0,122.89 L0,163.23 C0.021969678,172.677622 7.67239255,180.332513 17.12,180.360027 L167.12,180.360027 C176.600467,180.376595 184.302423,172.710441 184.33,163.23 L184.33,122.89 L142.66,122.89 L142.66,129.48 Z" id="Path"></path>
                <rect id="Rectangle" x="0" y="69.37" width="41.62" height="41.62"></rect>
                <rect id="Rectangle" x="142.66" y="69.37" width="41.62" height="41.62"></rect>
            </g>
        </g>
    </g>
</svg>