<?xml version="1.0" encoding="UTF-8"?>
<svg width="358px" height="70px" viewBox="0 0 358 70" version="1.1" xmlns="http://www.w3.org/2000/svg" xmlns:xlink="http://www.w3.org/1999/xlink">
    <!-- Generator: Sketch 64 (93537) - https://sketch.com/ -->
    <title>groundlayer-logo-horizontal-dark</title>
    <desc>Created with Sketch.</desc>
    <g id="groundlayer-logo-horizontal-dark" stroke="none" stroke-width="1" fill="none" fill-rule="evenodd">
        <g id="logo-title-dark" transform="translate(23.000000, 20.450000)" fill="#EBEBEB" fill-rule="nonzero">
            <path d="M15.44,29.12 C17.52,29.12 19.6,28.8133333 21.68,28.2 C23.76,27.5866667 25.6,26.7066667 27.2,25.56 L27.2,25.56 L27.2,13.96 L20.2,13.96 L20.2,21.64 C18.8666667,22.2533333 17.44,22.56 15.92,22.56 C14.3733333,22.56 13,22.22 11.8,21.54 C10.6,20.86 9.66666667,19.9133333 9,18.7 C8.33333333,17.4866667 8,16.1066667 8,14.56 C8,12.1333333 8.73333333,10.1933333 10.2,8.74 C11.6666667,7.28666667 13.6,6.56 16,6.56 C18.64,6.56 20.9066667,7.6 22.8,9.68 L22.8,9.68 L27.84,5.12 C26.4533333,3.46666667 24.72,2.2 22.64,1.32 C20.56,0.44 18.2133333,0 15.6,0 C12.6133333,0 9.93333333,0.62 7.56,1.86 C5.18666667,3.1 3.33333333,4.82666667 2,7.04 C0.666666667,9.25333333 0,11.76 0,14.56 C0,17.36 0.666666667,19.8666667 2,22.08 C3.33333333,24.2933333 5.17333333,26.02 7.52,27.26 C9.86666667,28.5 12.5066667,29.12 15.44,29.12 Z M38.66,28.56 L38.66,21.12 L42.98,21.12 L48.06,28.56 L56.54,28.56 L50.5,19.76 C52.26,18.9066667 53.6133333,17.7266667 54.56,16.22 C55.5066667,14.7133333 55.98,12.9466667 55.98,10.92 C55.98,8.81333333 55.4733333,6.98 54.46,5.42 C53.4466667,3.86 52.0066667,2.66 50.14,1.82 C48.2733333,0.98 46.0733333,0.56 43.54,0.56 L43.54,0.56 L30.74,0.56 L30.74,28.56 L38.66,28.56 Z M43.06,15 L38.66,15 L38.66,6.8 L43.06,6.8 C44.6866667,6.8 45.9133333,7.16 46.74,7.88 C47.5666667,8.6 47.98,9.61333333 47.98,10.92 C47.98,12.2266667 47.5666667,13.2333333 46.74,13.94 C45.9133333,14.6466667 44.6866667,15 43.06,15 L43.06,15 Z M72.96,29.12 C75.92,29.12 78.58,28.4933333 80.94,27.24 C83.3,25.9866667 85.1533333,24.2533333 86.5,22.04 C87.8466667,19.8266667 88.52,17.3333333 88.52,14.56 C88.52,11.7866667 87.8466667,9.29333333 86.5,7.08 C85.1533333,4.86666667 83.3,3.13333333 80.94,1.88 C78.58,0.626666667 75.92,0 72.96,0 C70,0 67.34,0.626666667 64.98,1.88 C62.62,3.13333333 60.7666667,4.86666667 59.42,7.08 C58.0733333,9.29333333 57.4,11.7866667 57.4,14.56 C57.4,17.3333333 58.0733333,19.8266667 59.42,22.04 C60.7666667,24.2533333 62.62,25.9866667 64.98,27.24 C67.34,28.4933333 70,29.12 72.96,29.12 Z M72.96,22.56 C71.5466667,22.56 70.2666667,22.2266667 69.12,21.56 C67.9733333,20.8933333 67.0666667,19.9533333 66.4,18.74 C65.7333333,17.5266667 65.4,16.1333333 65.4,14.56 C65.4,12.9866667 65.7333333,11.5933333 66.4,10.38 C67.0666667,9.16666667 67.9733333,8.22666667 69.12,7.56 C70.2666667,6.89333333 71.5466667,6.56 72.96,6.56 C74.3733333,6.56 75.6533333,6.89333333 76.8,7.56 C77.9466667,8.22666667 78.8533333,9.16666667 79.52,10.38 C80.1866667,11.5933333 80.52,12.9866667 80.52,14.56 C80.52,16.1333333 80.1866667,17.5266667 79.52,18.74 C78.8533333,19.9533333 77.9466667,20.8933333 76.8,21.56 C75.6533333,22.2266667 74.3733333,22.56 72.96,22.56 Z M104.1,29.12 C108.26,29.12 111.493333,27.9866667 113.8,25.72 C116.106667,23.4533333 117.26,20.24 117.26,16.08 L117.26,16.08 L117.26,0.56 L109.46,0.56 L109.46,15.84 C109.46,20.32 107.7,22.56 104.18,22.56 C100.633333,22.56 98.86,20.32 98.86,15.84 L98.86,15.84 L98.86,0.56 L90.94,0.56 L90.94,16.08 C90.94,20.24 92.0933333,23.4533333 94.4,25.72 C96.7066667,27.9866667 99.94,29.12 104.1,29.12 Z M128.88,28.56 L128.88,13.64 L141.24,28.56 L147.76,28.56 L147.76,0.56 L140,0.56 L140,15.48 L127.64,0.56 L121.12,0.56 L121.12,28.56 L128.88,28.56 Z M165.1,28.56 C168.166667,28.56 170.886667,27.9866667 173.26,26.84 C175.633333,25.6933333 177.473333,24.0666667 178.78,21.96 C180.086667,19.8533333 180.74,17.3866667 180.74,14.56 C180.74,11.7333333 180.086667,9.26666667 178.78,7.16 C177.473333,5.05333333 175.633333,3.42666667 173.26,2.28 C170.886667,1.13333333 168.166667,0.56 165.1,0.56 L165.1,0.56 L151.86,0.56 L151.86,28.56 L165.1,28.56 Z M164.78,22.24 L159.78,22.24 L159.78,6.88 L164.78,6.88 C167.18,6.88 169.106667,7.56 170.56,8.92 C172.013333,10.28 172.74,12.16 172.74,14.56 C172.74,16.96 172.013333,18.84 170.56,20.2 C169.106667,21.56 167.18,22.24 164.78,22.24 L164.78,22.24 Z M204.68,28.56 L204.68,22.28 L191.32,22.28 L191.32,0.56 L183.4,0.56 L183.4,28.56 L204.68,28.56 Z M211.34,28.56 L213.54,23.12 L225.38,23.12 L227.58,28.56 L235.82,28.56 L223.42,0.56 L215.62,0.56 L203.26,28.56 L211.34,28.56 Z M223.06,17.28 L215.86,17.28 L219.46,8.32 L223.06,17.28 Z M249.8,28.56 L249.8,18.52 L260.52,0.56 L252.84,0.56 L246.2,11.68 L239.56,0.56 L231.2,0.56 L241.88,18.4 L241.88,28.56 L249.8,28.56 Z M283.38,28.56 L283.38,22.44 L268.74,22.44 L268.74,17.32 L281.18,17.32 L281.18,11.4 L268.74,11.4 L268.74,6.68 L282.86,6.68 L282.86,0.56 L260.9,0.56 L260.9,28.56 L283.38,28.56 Z M294.2,28.56 L294.2,21.12 L298.52,21.12 L303.6,28.56 L312.08,28.56 L306.04,19.76 C307.8,18.9066667 309.153333,17.7266667 310.1,16.22 C311.046667,14.7133333 311.52,12.9466667 311.52,10.92 C311.52,8.81333333 311.013333,6.98 310,5.42 C308.986667,3.86 307.546667,2.66 305.68,1.82 C303.813333,0.98 301.613333,0.56 299.08,0.56 L299.08,0.56 L286.28,0.56 L286.28,28.56 L294.2,28.56 Z M298.6,15 L294.2,15 L294.2,6.8 L298.6,6.8 C300.226667,6.8 301.453333,7.16 302.28,7.88 C303.106667,8.6 303.52,9.61333333 303.52,10.92 C303.52,12.2266667 303.106667,13.2333333 302.28,13.94 C301.453333,14.6466667 300.226667,15 298.6,15 L298.6,15 Z" id="GROUNDLAYER"></path>
        </g>
        <g id="decoration-left" transform="translate(1.000000, 1.000000)" fill="#FED91F" fill-rule="nonzero">
            <polygon id="raw-decoration-left" points="30 0 30 10 10 10 10 48 0 48 0 0"></polygon>
        </g>
        <g id="decoration-right" transform="translate(327.000000, 21.000000)" fill="#FED91F" fill-rule="nonzero">
            <polygon id="raw-decoration-right" points="30 0 30 48 0 48 0 38 20 38 20 0"></polygon>
        </g>
    </g>
</svg>