<?xml version="1.0" encoding="UTF-8"?>
<svg width="780px" height="274px" viewBox="0 0 780 274" version="1.1" xmlns="http://www.w3.org/2000/svg" xmlns:xlink="http://www.w3.org/1999/xlink">
    <!-- Generator: Sketch 64 (93537) - https://sketch.com -->
    <title>icon-spacings-and-alignments</title>
    <desc>Created with Sketch.</desc>
    <defs>
        <path d="M79,26 L79,94" id="path-1"></path>
        <path d="M98.5,16.5 L41.5,16.5" id="path-2"></path>
        <path d="M29,136 L29,27" id="path-3"></path>
        <path d="M60,143 L42,143" id="path-4"></path>
        <path d="M120.749654,32.0032878 L120.249827,50.9967122" id="path-5"></path>
        <path d="M238.5,44 L210,71.5" id="path-6"></path>
        <path d="M122,126.5 L95,126.5" id="path-7"></path>
        <path d="M75,127.5 L61,127.5" id="path-8"></path>
        <path d="M215,126.5 L188,126.5" id="path-9"></path>
        <path d="M249,126.5 L235,126.5" id="path-10"></path>
        <path d="M190.75,202 L190.25,221" id="path-11"></path>
        <path d="M249.5,238.5 L60.5,238.5" id="path-12"></path>
        <path d="M42.5,31.5 L42.5,222.5" id="path-13"></path>
    </defs>
    <g id="icon-spacings-and-alignments" stroke="none" stroke-width="1" fill="none" fill-rule="evenodd">
        <rect fill="#FFFFFF" x="0" y="0" width="780" height="274"></rect>
        <rect id="Rectangle" stroke="#000000" fill="#FFFFFF" x="60" y="31" width="190" height="191" rx="40"></rect>
        <text id="G" font-family="Montserrat-ExtraBold, Montserrat" font-size="96" font-weight="600" letter-spacing="-3.8" fill="#000000">
            <tspan x="119" y="160">G</tspan>
        </text>
        <g id="detail-title" transform="translate(575.000000, 36.000000)">
            <path d="M90,180 C139.705627,180 180,139.705627 180,90 C180,40.2943725 139.705627,0 90,0 C40.2943725,0 0,40.2943725 0,90 C0,139.705627 40.2943725,180 90,180 Z" id="Oval" stroke="#979797" fill="#E7E7E7" stroke-dasharray="5,5"></path>
            <g id="Group-2" transform="translate(49.000000, 30.000000)">
                <text id="G" font-family="Montserrat-ExtraBold, Montserrat" font-size="96" font-weight="600" letter-spacing="-3.8" fill="#979797">
                    <tspan x="0" y="93">G</tspan>
                </text>
                <text id="5" font-family="Inter-Medium, Inter" font-size="12" font-weight="400" fill="#001EE8">
                    <tspan x="9" y="56">5</tspan>
                </text>
                <path id="Line-2" d="M3.18527825,61.5274688 L3.45634029,61.947618 L5.353,64.888 L6.82753252,63.9378579 L7.24768175,63.6667959 L7.78980584,64.5070943 L7.36965661,64.7781563 L5.896,65.729 L7.79333301,68.6700055 L8.06439505,69.0901548 L7.22409661,69.6322789 L6.95303456,69.2121296 L5.056,66.271 L5.05560025,66.2710851 L4.51347616,65.4307866 L2.61604185,62.4897421 L2.34497981,62.0695929 L3.18527825,61.5274688 Z M13.9700693,59.3298031 L14.5121934,60.1701016 L14.0920442,60.4411636 L9.89055194,63.1517841 L9.47040272,63.4228461 L8.92827863,62.5825477 L9.34842785,62.3114856 L13.5499201,59.6008652 L13.9700693,59.3298031 Z M18.5239605,51.6316167 L18.7950225,52.0517659 L23.1320152,58.7741534 L23.4030773,59.1943026 L22.5627788,59.7364267 L22.2917168,59.3162775 L20.394,56.375 L16.6129395,58.8147914 L16.1927903,59.0858534 L15.6506662,58.245555 L16.0708154,57.9744929 L19.851,55.534 L17.9547241,52.59389 L17.683662,52.1737407 L18.5239605,51.6316167 Z" fill="#001EE8" fill-rule="nonzero"></path>
                <text id="17" font-family="Inter-Medium, Inter" font-size="12" font-weight="400" fill="#001EE8">
                    <tspan x="84" y="63">17</tspan>
                </text>
                <path id="Line-2" d="M74.5,94.5 L74.5,93.5 L78.5,93.5 L78.5,89.5 L79.5,89.5 L79.5,93.5 L83.5,93.5 L83.5,94.5 L74.5,94.5 Z M79.5,81.5 L79.5,87.5 L78.5,87.5 L78.5,81.5 L79.5,81.5 Z M79.5,73.5 L79.5,79.5 L78.5,79.5 L78.5,73.5 L79.5,73.5 Z M79.5,65.5 L79.5,71.5 L78.5,71.5 L78.5,65.5 L79.5,65.5 Z M79.5,57.5 L79.5,63.5 L78.5,63.5 L78.5,57.5 L79.5,57.5 Z M79.5,49.5 L79.5,55.5 L78.5,55.5 L78.5,49.5 L79.5,49.5 Z M79.5,41.5 L79.5,47.5 L78.5,47.5 L78.5,41.5 L79.5,41.5 Z M79.5,33.5 L79.5,39.5 L78.5,39.5 L78.5,33.5 L79.5,33.5 Z M83.5,25.5 L83.5,26.5 L79.5,26.5 L79.5,31.5 L78.5,31.5 L78.5,26.5 L74.5,26.5 L74.5,25.5 L83.5,25.5 Z" fill="#001EE8" fill-rule="nonzero"></path>
            </g>
        </g>
        <g id="detail-decoration" transform="translate(358.000000, 35.000000)">
            <path d="M90,180 C139.705627,180 180,139.705627 180,90 C180,40.2943725 139.705627,0 90,0 C40.2943725,0 0,40.2943725 0,90 C0,139.705627 40.2943725,180 90,180 Z" id="Oval" stroke="#979797" fill="#E7E7E7" stroke-dasharray="5,5"></path>
            <g id="Group" transform="translate(33.000000, 14.000000)">
                <path d="M51,136 C51,136 51,102.666667 51,36 L99,36" id="Path" stroke="#FED91F" stroke-width="19"></path>
                <text id="27.5" font-family="Inter-Medium, Inter" font-size="12" font-weight="400" fill="#001EE8">
                    <tspan x="0" y="86">27.5</tspan>
                </text>
                <text id="14.5" font-family="Inter-Medium, Inter" font-size="12" font-weight="400" fill="#001EE8">
                    <tspan x="58" y="12">14.5</tspan>
                </text>
                <text id="5" font-family="Inter-Medium, Inter" font-size="12" font-weight="400" fill="#001EE8">
                    <tspan x="47" y="158">5</tspan>
                </text>
                <path id="Line-2" d="M99,21 L98,21 L98,17 L93,17 L93,16 L98,16 L98,12 L99,12 L99,21 Z M42,12 L42,16 L43,16 L43,17 L42,17 L42,21 L41,21 L41,12 L42,12 Z M91,16 L91,17 L85,17 L85,16 L91,16 Z M83,16 L83,17 L77,17 L77,16 L83,16 Z M75,16 L75,17 L69,17 L69,16 L75,16 Z M67,16 L67,17 L61,17 L61,16 L67,16 Z M59,16 L59,17 L53,17 L53,16 L59,16 Z M51,16 L51,17 L45,17 L45,16 L51,16 Z" fill="#001EE8" fill-rule="nonzero"></path>
                <path id="Line-2" d="M24.5,136.5 L24.5,135.5 L28.5,135.5 L28.5,130.5 L29.5,130.5 L29.5,135.5 L33.5,135.5 L33.5,136.5 L24.5,136.5 Z M29.5,122.5 L29.5,128.5 L28.5,128.5 L28.5,122.5 L29.5,122.5 Z M29.5,114.5 L29.5,120.5 L28.5,120.5 L28.5,114.5 L29.5,114.5 Z M29.5,106.5 L29.5,112.5 L28.5,112.5 L28.5,106.5 L29.5,106.5 Z M29.5,98.5 L29.5,104.5 L28.5,104.5 L28.5,98.5 L29.5,98.5 Z M29.5,90.5 L29.5,96.5 L28.5,96.5 L28.5,90.5 L29.5,90.5 Z M29.5,82.5 L29.5,88.5 L28.5,88.5 L28.5,82.5 L29.5,82.5 Z M29.5,74.5 L29.5,80.5 L28.5,80.5 L28.5,74.5 L29.5,74.5 Z M29.5,66.5 L29.5,72.5 L28.5,72.5 L28.5,66.5 L29.5,66.5 Z M29.5,58.5 L29.5,64.5 L28.5,64.5 L28.5,58.5 L29.5,58.5 Z M29.5,50.5 L29.5,56.5 L28.5,56.5 L28.5,50.5 L29.5,50.5 Z M29.5,42.5 L29.5,48.5 L28.5,48.5 L28.5,42.5 L29.5,42.5 Z M29.5,34.5 L29.5,40.5 L28.5,40.5 L28.5,34.5 L29.5,34.5 Z M33.5,26.5 L33.5,27.5 L29.5,27.5 L29.5,32.5 L28.5,32.5 L28.5,27.5 L24.5,27.5 L24.5,26.5 L33.5,26.5 Z" fill="#001EE8" fill-rule="nonzero"></path>
                <path id="Line-2" d="M60.5,147.5 L59.5,147.5 L59.5,143.5 L54.5,143.5 L54.5,142.5 L59.5,142.5 L59.5,138.5 L60.5,138.5 L60.5,147.5 Z M42.5,138.5 L42.5,142.5 L44.5,142.5 L44.5,143.5 L42.5,143.5 L42.5,147.5 L41.5,147.5 L41.5,138.5 L42.5,138.5 Z M52.5,142.5 L52.5,143.5 L46.5,143.5 L46.5,142.5 L52.5,142.5 Z" fill="#001EE8" fill-rule="nonzero"></path>
            </g>
        </g>
        <path d="M85,161 C85,161 85,127.666667 85,61 L133,61" id="Path" stroke="#FED91F" stroke-width="19"></path>
        <path d="M177,192 C177,192 177,158.666667 177,92 L225,92" id="Path" stroke="#FED91F" stroke-width="19" transform="translate(201.000000, 142.000000) rotate(-180.000000) translate(-201.000000, -142.000000) "></path>
        <text id="7" font-family="Inter-Medium, Inter" font-size="12" font-weight="400" fill="#001EE8">
            <tspan x="105" y="141">7</tspan>
        </text>
        <text id="4" font-family="Inter-Medium, Inter" font-size="12" font-weight="400" fill="#001EE8">
            <tspan x="64" y="141">4</tspan>
        </text>
        <text id="5" font-family="Inter-Medium, Inter" font-size="12" font-weight="400" fill="#001EE8">
            <tspan x="179" y="216">5</tspan>
        </text>
        <text id="7" font-family="Inter-Medium, Inter" font-size="12" font-weight="400" fill="#001EE8">
            <tspan x="198" y="141">7</tspan>
        </text>
        <line x1="177" y1="162" x2="70" y2="161.5" id="Line-2" stroke="#DF00F7" stroke-linecap="square" stroke-dasharray="5,3"></line>
        <text id="4" font-family="Inter-Medium, Inter" font-size="12" font-weight="400" fill="#001EE8">
            <tspan x="238" y="141">4</tspan>
        </text>
        <text id="48" font-family="Inter-Medium, Inter" font-size="12" font-weight="400" fill="#001EE8">
            <tspan x="148" y="254">48</tspan>
        </text>
        <text id="48" font-family="Inter-Medium, Inter" font-size="12" font-weight="400" fill="#001EE8">
            <tspan x="21" y="132">48</tspan>
        </text>
        <text id="5" font-family="Inter-Medium, Inter" font-size="12" font-weight="400" fill="#001EE8">
            <tspan x="109" y="46">5</tspan>
        </text>
        <text id="10" transform="translate(217.000000, 52.500000) rotate(-45.000000) translate(-217.000000, -52.500000) " font-family="Inter-Medium, Inter" font-size="12" font-weight="400" fill="#001EE8">
            <tspan x="210" y="57">10</tspan>
        </text>
        <path id="Line-2" d="M119.842073,47.4847702 L120.841727,47.5110769 L120.828574,48.0109038 L120.762,50.51 L124.261596,50.602112 L124.761423,50.6152653 L124.735116,51.6149193 L124.235289,51.6017659 L120.287,51.497 L119.736847,51.4833859 L116.238058,51.3913125 L115.738231,51.3781591 L115.764538,50.3785052 L116.264365,50.3916585 L119.762,50.483 L119.82892,47.9845971 L119.842073,47.4847702 Z M120.052527,39.4875388 L121.052181,39.5138455 L121.039027,40.0136725 L120.907494,45.0119421 L120.894341,45.511769 L119.894687,45.4854623 L119.90784,44.9856354 L120.039374,39.9873658 L120.052527,39.4875388 Z M116.264365,31.3850807 L116.764192,31.3982341 L120.813,31.504 L121.262634,31.5166141 L124.761423,31.6086875 L125.26125,31.6218409 L125.234943,32.6214948 L124.735116,32.6083415 L121.236,32.516 L121.117947,37.0147107 L121.104794,37.5145377 L120.10514,37.488231 L120.118294,36.988404 L120.236,32.489 L116.737885,32.397888 L116.238058,32.3847347 L116.264365,31.3850807 Z" fill="#001EE8" fill-rule="nonzero"></path>
        <path d="M210,111 C232.09139,111 250,93.09139 250,71 C250,48.90861 232.09139,31 210,31 C187.90861,31 170,48.90861 170,71 C170,93.09139 187.90861,111 210,111 Z" id="Oval" stroke="#DF00F7" stroke-dasharray="5,3"></path>
        <path id="Line-2" d="M215.125009,65.8600041 L215.819378,66.579623 L215.459568,66.9268076 L211.861474,70.3986535 L211.501664,70.7458381 L210.807295,70.0262191 L211.167104,69.6790345 L214.765199,66.2071887 L215.125009,65.8600041 Z M220.88196,60.3050507 L221.576329,61.0246697 L221.21652,61.3718542 L217.618425,64.8437001 L217.258616,65.1908847 L216.564247,64.4712657 L216.924056,64.1240811 L220.522151,60.6522353 L220.88196,60.3050507 Z M226.638912,54.7500973 L227.333281,55.4697163 L226.973472,55.8169008 L223.375377,59.2887467 L223.015567,59.6359313 L222.321198,58.9163123 L222.681008,58.5691278 L226.279103,55.0972819 L226.638912,54.7500973 Z M232.395864,49.1951439 L233.090233,49.9147629 L232.730423,50.2619475 L229.132329,53.7337933 L228.772519,54.0809779 L228.07815,53.361359 L228.437959,53.0141744 L232.036054,49.5423285 L232.395864,49.1951439 Z M239.593723,42.944653 L239.338808,43.7962054 L236.706517,52.5894441 L236.563127,53.0684424 L235.605131,52.7816624 L235.748521,52.3026641 L237.833,45.337 L234.88928,48.1788399 L234.529471,48.5260245 L233.835102,47.8064056 L234.194911,47.459221 L237.139,44.618 L230.104393,46.4532958 L229.620581,46.5794927 L229.368187,45.6118681 L229.852,45.4856712 L238.733613,43.1690031 L239.593723,42.944653 Z" fill="#001EE8" fill-rule="nonzero"></path>
        <circle id="Oval" fill="#DF00F7" cx="210" cy="71" r="3"></circle>
        <line x1="309.5" y1="18.5" x2="309.5" y2="254.5" id="Line-4" stroke="#222222" stroke-width="5" stroke-linecap="square" stroke-dasharray="10,15"></line>
        <path id="Line-2" d="M122.5,131 L121.5,131 L121.5,127 L116.5,127 L116.5,126 L121.5,126 L121.5,122 L122.5,122 L122.5,131 Z M95.5,122 L95.5,126 L98.5,126 L98.5,127 L95.5,127 L95.5,131 L94.5,131 L94.5,122 L95.5,122 Z M114.5,126 L114.5,127 L108.5,127 L108.5,126 L114.5,126 Z M106.5,126 L106.5,127 L100.5,127 L100.5,126 L106.5,126 Z" fill="#001EE8" fill-rule="nonzero"></path>
        <line x1="241" y1="91" x2="136.5" y2="91" id="Line-2" stroke="#DF00F7" stroke-linecap="square" stroke-dasharray="5,3"></line>
        <path id="Line-2" d="M75.5,132 L74.5,132 L74.5,128 L69.5,128 L69.5,127 L74.5,127 L74.5,123 L75.5,123 L75.5,132 Z M61.5,132 L60.5,132 L60.5,123 L61.5,123 L61.5,127 L67.5,127 L67.5,128 L61.5,128 L61.5,132 Z" fill="#001EE8" fill-rule="nonzero"></path>
        <path id="Line-2" d="M215.5,131 L214.5,131 L214.5,127 L209.5,127 L209.5,126 L214.5,126 L214.5,122 L215.5,122 L215.5,131 Z M188.5,122 L188.5,126 L191.5,126 L191.5,127 L188.5,127 L188.5,131 L187.5,131 L187.5,122 L188.5,122 Z M207.5,126 L207.5,127 L201.5,127 L201.5,126 L207.5,126 Z M199.5,126 L199.5,127 L193.5,127 L193.5,126 L199.5,126 Z" fill="#001EE8" fill-rule="nonzero"></path>
        <path id="Line-2" d="M249.5,131 L248.5,131 L248.5,127 L243.5,127 L243.5,126 L248.5,126 L248.5,122 L249.5,122 L249.5,131 Z M235.5,131 L234.5,131 L234.5,122 L235.5,122 L235.5,126 L241.5,126 L241.5,127 L235.5,127 L235.5,131 Z" fill="#001EE8" fill-rule="nonzero"></path>
        <path id="Line-2" d="M189.842419,217.481482 L190.842073,217.507789 L190.82892,218.007616 L190.762,220.513 L194.261769,220.6054 L194.761596,220.618553 L194.735289,221.618207 L194.235462,221.605054 L186.238231,221.3946 L185.738404,221.381447 L185.764711,220.381793 L186.264538,220.394946 L189.763,220.486 L189.829266,217.981309 L189.842419,217.481482 Z M190.052873,209.484251 L191.052527,209.510558 L191.039374,210.010385 L190.90784,215.008654 L190.894687,215.508481 L189.895033,215.482175 L189.908186,214.982348 L190.03972,209.984078 L190.052873,209.484251 Z M186.264711,201.381793 L186.764538,201.394946 L194.761769,201.6054 L195.261596,201.618553 L195.235289,202.618207 L194.735462,202.605054 L191.236,202.513 L191.118294,207.011423 L191.10514,207.51125 L190.105486,207.484943 L190.11864,206.985116 L190.237,202.486 L186.738231,202.3946 L186.238404,202.381447 L186.264711,201.381793 Z" fill="#001EE8" fill-rule="nonzero"></path>
        <path id="Line-2" d="M250,243 L249,243 L249,239 L244,239 L244,238 L249,238 L249,234 L250,234 L250,243 Z M61,234 L61,238 L66,238 L66,239 L61,239 L61,243 L60,243 L60,234 L61,234 Z M242,238 L242,239 L236,239 L236,238 L242,238 Z M234,238 L234,239 L228,239 L228,238 L234,238 Z M226,238 L226,239 L220,239 L220,238 L226,238 Z M218,238 L218,239 L212,239 L212,238 L218,238 Z M210,238 L210,239 L204,239 L204,238 L210,238 Z M202,238 L202,239 L196,239 L196,238 L202,238 Z M194,238 L194,239 L188,239 L188,238 L194,238 Z M186,238 L186,239 L180,239 L180,238 L186,238 Z M178,238 L178,239 L172,239 L172,238 L178,238 Z M170,238 L170,239 L164,239 L164,238 L170,238 Z M162,238 L162,239 L156,239 L156,238 L162,238 Z M154,238 L154,239 L148,239 L148,238 L154,238 Z M146,238 L146,239 L140,239 L140,238 L146,238 Z M138,238 L138,239 L132,239 L132,238 L138,238 Z M130,238 L130,239 L124,239 L124,238 L130,238 Z M122,238 L122,239 L116,239 L116,238 L122,238 Z M114,238 L114,239 L108,239 L108,238 L114,238 Z M106,238 L106,239 L100,239 L100,238 L106,238 Z M98,238 L98,239 L92,239 L92,238 L98,238 Z M90,238 L90,239 L84,239 L84,238 L90,238 Z M82,238 L82,239 L76,239 L76,238 L82,238 Z M74,238 L74,239 L68,239 L68,238 L74,238 Z" fill="#001EE8" fill-rule="nonzero"></path>
        <path id="Line-2" d="M47,222 L47,223 L38,223 L38,222 L47,222 Z M43,215 L43,221 L42,221 L42,215 L43,215 Z M43,207 L43,213 L42,213 L42,207 L43,207 Z M43,199 L43,205 L42,205 L42,199 L43,199 Z M43,191 L43,197 L42,197 L42,191 L43,191 Z M43,183 L43,189 L42,189 L42,183 L43,183 Z M43,175 L43,181 L42,181 L42,175 L43,175 Z M43,167 L43,173 L42,173 L42,167 L43,167 Z M43,159 L43,165 L42,165 L42,159 L43,159 Z M43,151 L43,157 L42,157 L42,151 L43,151 Z M43,143 L43,149 L42,149 L42,143 L43,143 Z M43,135 L43,141 L42,141 L42,135 L43,135 Z M43,127 L43,133 L42,133 L42,127 L43,127 Z M43,119 L43,125 L42,125 L42,119 L43,119 Z M43,111 L43,117 L42,117 L42,111 L43,111 Z M43,103 L43,109 L42,109 L42,103 L43,103 Z M43,95 L43,101 L42,101 L42,95 L43,95 Z M43,87 L43,93 L42,93 L42,87 L43,87 Z M43,79 L43,85 L42,85 L42,79 L43,79 Z M43,71 L43,77 L42,77 L42,71 L43,71 Z M43,63 L43,69 L42,69 L42,63 L43,63 Z M43,55 L43,61 L42,61 L42,55 L43,55 Z M43,47 L43,53 L42,53 L42,47 L43,47 Z M43,39 L43,45 L42,45 L42,39 L43,39 Z M47,31 L47,32 L43,32 L43,37 L42,37 L42,32 L38,32 L38,31 L47,31 Z" fill="#001EE8" fill-rule="nonzero"></path>
    </g>
</svg>