<?xml version="1.0" encoding="UTF-8"?>
<svg width="404px" height="106px" viewBox="0 0 404 106" version="1.1" xmlns="http://www.w3.org/2000/svg" xmlns:xlink="http://www.w3.org/1999/xlink">
    <!-- Generator: Sketch 64 (93537) - https://sketch.com -->
    <title>preview-logo-horizontal-dark-slogan</title>
    <desc>Created with Sketch.</desc>
    <g id="preview-logo-horizontal-dark-slogan" stroke="none" stroke-width="1" fill="none" fill-rule="evenodd">
        <rect fill="#000000" x="0" y="0" width="404" height="106"></rect>
        <g id="logo-title-dark" transform="translate(46.000000, 38.000000)" fill="#EBEBEB" fill-rule="nonzero">
            <path d="M15.44,29.12 C17.52,29.12 19.6,28.8133333 21.68,28.2 C23.76,27.5866667 25.6,26.7066667 27.2,25.56 L27.2,25.56 L27.2,13.96 L20.2,13.96 L20.2,21.64 C18.8666667,22.2533333 17.44,22.56 15.92,22.56 C14.3733333,22.56 13,22.22 11.8,21.54 C10.6,20.86 9.66666667,19.9133333 9,18.7 C8.33333333,17.4866667 8,16.1066667 8,14.56 C8,12.1333333 8.73333333,10.1933333 10.2,8.74 C11.6666667,7.28666667 13.6,6.56 16,6.56 C18.64,6.56 20.9066667,7.6 22.8,9.68 L22.8,9.68 L27.84,5.12 C26.4533333,3.46666667 24.72,2.2 22.64,1.32 C20.56,0.44 18.2133333,0 15.6,0 C12.6133333,0 9.93333333,0.62 7.56,1.86 C5.18666667,3.1 3.33333333,4.82666667 2,7.04 C0.666666667,9.25333333 0,11.76 0,14.56 C0,17.36 0.666666667,19.8666667 2,22.08 C3.33333333,24.2933333 5.17333333,26.02 7.52,27.26 C9.86666667,28.5 12.5066667,29.12 15.44,29.12 Z M38.66,28.56 L38.66,21.12 L42.98,21.12 L48.06,28.56 L56.54,28.56 L50.5,19.76 C52.26,18.9066667 53.6133333,17.7266667 54.56,16.22 C55.5066667,14.7133333 55.98,12.9466667 55.98,10.92 C55.98,8.81333333 55.4733333,6.98 54.46,5.42 C53.4466667,3.86 52.0066667,2.66 50.14,1.82 C48.2733333,0.98 46.0733333,0.56 43.54,0.56 L43.54,0.56 L30.74,0.56 L30.74,28.56 L38.66,28.56 Z M43.06,15 L38.66,15 L38.66,6.8 L43.06,6.8 C44.6866667,6.8 45.9133333,7.16 46.74,7.88 C47.5666667,8.6 47.98,9.61333333 47.98,10.92 C47.98,12.2266667 47.5666667,13.2333333 46.74,13.94 C45.9133333,14.6466667 44.6866667,15 43.06,15 L43.06,15 Z M72.96,29.12 C75.92,29.12 78.58,28.4933333 80.94,27.24 C83.3,25.9866667 85.1533333,24.2533333 86.5,22.04 C87.8466667,19.8266667 88.52,17.3333333 88.52,14.56 C88.52,11.7866667 87.8466667,9.29333333 86.5,7.08 C85.1533333,4.86666667 83.3,3.13333333 80.94,1.88 C78.58,0.626666667 75.92,0 72.96,0 C70,0 67.34,0.626666667 64.98,1.88 C62.62,3.13333333 60.7666667,4.86666667 59.42,7.08 C58.0733333,9.29333333 57.4,11.7866667 57.4,14.56 C57.4,17.3333333 58.0733333,19.8266667 59.42,22.04 C60.7666667,24.2533333 62.62,25.9866667 64.98,27.24 C67.34,28.4933333 70,29.12 72.96,29.12 Z M72.96,22.56 C71.5466667,22.56 70.2666667,22.2266667 69.12,21.56 C67.9733333,20.8933333 67.0666667,19.9533333 66.4,18.74 C65.7333333,17.5266667 65.4,16.1333333 65.4,14.56 C65.4,12.9866667 65.7333333,11.5933333 66.4,10.38 C67.0666667,9.16666667 67.9733333,8.22666667 69.12,7.56 C70.2666667,6.89333333 71.5466667,6.56 72.96,6.56 C74.3733333,6.56 75.6533333,6.89333333 76.8,7.56 C77.9466667,8.22666667 78.8533333,9.16666667 79.52,10.38 C80.1866667,11.5933333 80.52,12.9866667 80.52,14.56 C80.52,16.1333333 80.1866667,17.5266667 79.52,18.74 C78.8533333,19.9533333 77.9466667,20.8933333 76.8,21.56 C75.6533333,22.2266667 74.3733333,22.56 72.96,22.56 Z M104.1,29.12 C108.26,29.12 111.493333,27.9866667 113.8,25.72 C116.106667,23.4533333 117.26,20.24 117.26,16.08 L117.26,16.08 L117.26,0.56 L109.46,0.56 L109.46,15.84 C109.46,20.32 107.7,22.56 104.18,22.56 C100.633333,22.56 98.86,20.32 98.86,15.84 L98.86,15.84 L98.86,0.56 L90.94,0.56 L90.94,16.08 C90.94,20.24 92.0933333,23.4533333 94.4,25.72 C96.7066667,27.9866667 99.94,29.12 104.1,29.12 Z M128.88,28.56 L128.88,13.64 L141.24,28.56 L147.76,28.56 L147.76,0.56 L140,0.56 L140,15.48 L127.64,0.56 L121.12,0.56 L121.12,28.56 L128.88,28.56 Z M165.1,28.56 C168.166667,28.56 170.886667,27.9866667 173.26,26.84 C175.633333,25.6933333 177.473333,24.0666667 178.78,21.96 C180.086667,19.8533333 180.74,17.3866667 180.74,14.56 C180.74,11.7333333 180.086667,9.26666667 178.78,7.16 C177.473333,5.05333333 175.633333,3.42666667 173.26,2.28 C170.886667,1.13333333 168.166667,0.56 165.1,0.56 L165.1,0.56 L151.86,0.56 L151.86,28.56 L165.1,28.56 Z M164.78,22.24 L159.78,22.24 L159.78,6.88 L164.78,6.88 C167.18,6.88 169.106667,7.56 170.56,8.92 C172.013333,10.28 172.74,12.16 172.74,14.56 C172.74,16.96 172.013333,18.84 170.56,20.2 C169.106667,21.56 167.18,22.24 164.78,22.24 L164.78,22.24 Z M204.68,28.56 L204.68,22.28 L191.32,22.28 L191.32,0.56 L183.4,0.56 L183.4,28.56 L204.68,28.56 Z M211.34,28.56 L213.54,23.12 L225.38,23.12 L227.58,28.56 L235.82,28.56 L223.42,0.56 L215.62,0.56 L203.26,28.56 L211.34,28.56 Z M223.06,17.28 L215.86,17.28 L219.46,8.32 L223.06,17.28 Z M249.8,28.56 L249.8,18.52 L260.52,0.56 L252.84,0.56 L246.2,11.68 L239.56,0.56 L231.2,0.56 L241.88,18.4 L241.88,28.56 L249.8,28.56 Z M283.38,28.56 L283.38,22.44 L268.74,22.44 L268.74,17.32 L281.18,17.32 L281.18,11.4 L268.74,11.4 L268.74,6.68 L282.86,6.68 L282.86,0.56 L260.9,0.56 L260.9,28.56 L283.38,28.56 Z M294.2,28.56 L294.2,21.12 L298.52,21.12 L303.6,28.56 L312.08,28.56 L306.04,19.76 C307.8,18.9066667 309.153333,17.7266667 310.1,16.22 C311.046667,14.7133333 311.52,12.9466667 311.52,10.92 C311.52,8.81333333 311.013333,6.98 310,5.42 C308.986667,3.86 307.546667,2.66 305.68,1.82 C303.813333,0.98 301.613333,0.56 299.08,0.56 L299.08,0.56 L286.28,0.56 L286.28,28.56 L294.2,28.56 Z M298.6,15 L294.2,15 L294.2,6.8 L298.6,6.8 C300.226667,6.8 301.453333,7.16 302.28,7.88 C303.106667,8.6 303.52,9.61333333 303.52,10.92 C303.52,12.2266667 303.106667,13.2333333 302.28,13.94 C301.453333,14.6466667 300.226667,15 298.6,15 L298.6,15 Z" id="GROUNDLAYER"></path>
        </g>
        <g id="logo-slogan-dark" transform="translate(52.000000, 77.000000)" fill="#EBEBEB" fill-rule="nonzero">
            <path d="M4.21555,10.11732 C5.27301,10.11732 6.21138667,9.90773333 7.03068,9.48856 C7.84997333,9.06938667 8.48587833,8.481115 8.938395,7.723745 C9.39091167,6.966375 9.61717,6.09706667 9.61717,5.11582 C9.61717,4.13457333 9.39091167,3.265265 8.938395,2.507895 C8.48587833,1.750525 7.84997333,1.16225333 7.03068,0.74308 C6.21138667,0.323906667 5.27301,0.11432 4.21555,0.11432 L4.21555,0.11432 L0,0.11432 L0,10.11732 L4.21555,10.11732 Z M4.12981,8.87409 L1.429,8.87409 L1.429,1.35755 L4.12981,1.35755 C4.93957667,1.35755 5.651695,1.51474 6.266165,1.82912 C6.880635,2.1435 7.35458667,2.58410833 7.68802,3.150945 C8.02145333,3.71778167 8.18817,4.37274 8.18817,5.11582 C8.18817,5.8589 8.02145333,6.51385833 7.68802,7.080695 C7.35458667,7.64753167 6.880635,8.08814 6.266165,8.40252 C5.651695,8.7169 4.93957667,8.87409 4.12981,8.87409 L4.12981,8.87409 Z M22.76286,10.11732 L22.76286,8.87409 L16.93254,8.87409 L16.93254,5.64455 L21.94833,5.64455 L21.94833,4.4299 L16.93254,4.4299 L16.93254,1.35755 L22.5628,1.35755 L22.5628,0.11432 L15.50354,0.11432 L15.50354,10.11732 L22.76286,10.11732 Z M32.93623,10.11732 L37.32326,0.11432 L35.89426,0.11432 L32.2646,8.33107 L28.66352,0.11432 L27.1202,0.11432 L31.52152,10.11732 L32.93623,10.11732 Z M46.71068,10.23164 C47.71098,10.23164 48.6160133,10.010145 49.42578,9.567155 C50.2355467,9.124165 50.86907,8.51445833 51.32635,7.738035 C51.78363,6.96161167 52.01227,6.08754 52.01227,5.11582 C52.01227,4.1441 51.78363,3.27002833 51.32635,2.493605 C50.86907,1.71718167 50.2355467,1.107475 49.42578,0.664485 C48.6160133,0.221495 47.71098,0 46.71068,0 C45.7008533,0 44.7910567,0.221495 43.98129,0.664485 C43.1715233,1.107475 42.5356183,1.71956333 42.073575,2.50075 C41.6115317,3.28193667 41.38051,4.15362667 41.38051,5.11582 C41.38051,6.07801333 41.6115317,6.94970333 42.073575,7.73089 C42.5356183,8.51207667 43.1715233,9.124165 43.98129,9.567155 C44.7910567,10.010145 45.7008533,10.23164 46.71068,10.23164 Z M46.71068,8.95983 C45.9771267,8.95983 45.3126417,8.79311333 44.717225,8.45968 C44.1218083,8.12624667 43.6550017,7.666585 43.316805,7.080695 C42.9786083,6.494805 42.80951,5.83984667 42.80951,5.11582 C42.80951,4.39179333 42.9786083,3.736835 43.316805,3.150945 C43.6550017,2.565055 44.1218083,2.10539333 44.717225,1.77196 C45.3126417,1.43852667 45.9771267,1.27181 46.71068,1.27181 C47.4442333,1.27181 48.103955,1.43852667 48.689845,1.77196 C49.275735,2.10539333 49.7377783,2.565055 50.075975,3.150945 C50.4141717,3.736835 50.58327,4.39179333 50.58327,5.11582 C50.58327,5.83984667 50.4141717,6.494805 50.075975,7.080695 C49.7377783,7.666585 49.275735,8.12624667 48.689845,8.45968 C48.103955,8.79311333 47.4442333,8.95983 46.71068,8.95983 Z M59.32764,10.11732 L59.32764,7.08784 L61.79981,7.08784 C63.0954367,7.08784 64.11479,6.77822333 64.85787,6.15899 C65.60095,5.53975667 65.97249,4.68712 65.97249,3.60108 C65.97249,2.51504 65.60095,1.66240333 64.85787,1.04317 C64.11479,0.423936667 63.0954367,0.11432 61.79981,0.11432 L61.79981,0.11432 L57.89864,0.11432 L57.89864,10.11732 L59.32764,10.11732 Z M61.75694,5.84461 L59.32764,5.84461 L59.32764,1.35755 L61.75694,1.35755 C62.6619733,1.35755 63.3526567,1.550465 63.82899,1.936295 C64.3053233,2.322125 64.54349,2.87705333 64.54349,3.60108 C64.54349,4.32510667 64.3053233,4.880035 63.82899,5.265865 C63.3526567,5.651695 62.6619733,5.84461 61.75694,5.84461 L61.75694,5.84461 Z M74.83118,10.23164 C75.6790533,10.23164 76.3935533,10.1054117 76.97468,9.852955 C77.5558067,9.60049833 77.98927,9.25753833 78.27507,8.824075 C78.56087,8.39061167 78.70377,7.91189667 78.70377,7.38793 C78.70377,6.75917 78.539435,6.25902 78.210765,5.88748 C77.882095,5.51594 77.48912,5.23966667 77.03184,5.05866 C76.57456,4.87765333 75.9696167,4.69664667 75.21701,4.51564 C74.6358833,4.38226667 74.1762217,4.25603833 73.838025,4.136955 C73.4998283,4.01787167 73.21641,3.851155 72.98777,3.636805 C72.75913,3.422455 72.64481,3.1438 72.64481,2.80084 C72.64481,2.33403333 72.8472517,1.95296667 73.252135,1.65764 C73.6570183,1.36231333 74.2643433,1.21465 75.07411,1.21465 C75.53139,1.21465 75.9981967,1.28371833 76.47453,1.421855 C76.9508633,1.55999167 77.3986167,1.76243333 77.81779,2.02918 L77.81779,2.02918 L78.28936,0.88598 C77.8797133,0.60018 77.38909,0.381066667 76.81749,0.22864 C76.24589,0.0762133333 75.6647633,0 75.07411,0 C74.2262367,0 73.5165,0.12861 72.9449,0.38583 C72.3733,0.64305 71.9469817,0.98601 71.665945,1.41471 C71.3849083,1.84341 71.24439,2.32450667 71.24439,2.858 C71.24439,3.49628667 71.408725,4.00358167 71.737395,4.379885 C72.066065,4.75618833 72.4614217,5.03484333 72.923465,5.21585 C73.3855083,5.39685667 73.9928333,5.57786333 74.74544,5.75887 C75.34562,5.90177 75.810045,6.03038 76.138715,6.1447 C76.467385,6.25902 76.7436583,6.423355 76.967535,6.637705 C77.1914117,6.852055 77.30335,7.13071 77.30335,7.47367 C77.30335,7.94047667 77.0985267,8.31439833 76.68888,8.595435 C76.2792333,8.87647167 75.66,9.01699 74.83118,9.01699 C74.20242,9.01699 73.5903317,8.909815 72.994915,8.695465 C72.3994983,8.481115 71.9112567,8.20246 71.53019,7.8595 L71.53019,7.8595 L71.00146,8.97412 C71.40158,9.34566 71.951745,9.64813167 72.651955,9.881535 C73.352165,10.1149383 74.0785733,10.23164 74.83118,10.23164 Z M99.29344,10.11732 L99.29344,8.87409 L93.46312,8.87409 L93.46312,5.64455 L98.47891,5.64455 L98.47891,4.4299 L93.46312,4.4299 L93.46312,1.35755 L99.09338,1.35755 L99.09338,0.11432 L92.03412,0.11432 L92.03412,10.11732 L99.29344,10.11732 Z M106.73742,10.11732 L106.73742,2.65794 L112.73922,10.11732 L113.911,10.11732 L113.911,0.11432 L112.482,0.11432 L112.482,7.5737 L106.4802,0.11432 L105.30842,0.11432 L105.30842,10.11732 L106.73742,10.11732 Z M125.12754,10.23164 C125.84204,10.23164 126.52796,10.1220833 127.1853,9.90297 C127.84264,9.68385667 128.419003,9.36947667 128.91439,8.95983 L128.91439,8.95983 L128.91439,5.05866 L127.54255,5.05866 L127.54255,8.31678 C126.875683,8.74548 126.094497,8.95983 125.19899,8.95983 C124.446383,8.95983 123.767608,8.79311333 123.162665,8.45968 C122.557722,8.12624667 122.08377,7.666585 121.74081,7.080695 C121.39785,6.494805 121.22637,5.83984667 121.22637,5.11582 C121.22637,4.38226667 121.39785,3.722545 121.74081,3.136655 C122.08377,2.550765 122.557722,2.093485 123.162665,1.764815 C123.767608,1.436145 124.451147,1.27181 125.21328,1.27181 C126.346953,1.27181 127.31391,1.65764 128.11415,2.4293 L128.11415,2.4293 L129.00013,1.54332 C128.54285,1.03840667 127.987922,0.654958333 127.335345,0.392975 C126.682768,0.130991667 125.95636,0 125.15612,0 C124.136767,0 123.219825,0.219113333 122.405295,0.65734 C121.590765,1.09556667 120.952478,1.70527333 120.490435,2.48646 C120.028392,3.26764667 119.79737,4.1441 119.79737,5.11582 C119.79737,6.08754 120.028392,6.96161167 120.490435,7.738035 C120.952478,8.51445833 121.588383,9.124165 122.39815,9.567155 C123.207917,10.010145 124.117713,10.23164 125.12754,10.23164 Z M136.77278,10.11732 L136.77278,0.11432 L135.34378,0.11432 L135.34378,10.11732 L136.77278,10.11732 Z M144.90268,10.11732 L144.90268,2.65794 L150.90448,10.11732 L152.07626,10.11732 L152.07626,0.11432 L150.64726,0.11432 L150.64726,7.5737 L144.64546,0.11432 L143.47368,0.11432 L143.47368,10.11732 L144.90268,10.11732 Z M166.03648,10.11732 L166.03648,8.87409 L160.20616,8.87409 L160.20616,5.64455 L165.22195,5.64455 L165.22195,4.4299 L160.20616,4.4299 L160.20616,1.35755 L165.83642,1.35755 L165.83642,0.11432 L158.77716,0.11432 L158.77716,10.11732 L166.03648,10.11732 Z M179.31078,10.11732 L179.31078,8.87409 L173.48046,8.87409 L173.48046,5.64455 L178.49625,5.64455 L178.49625,4.4299 L173.48046,4.4299 L173.48046,1.35755 L179.11072,1.35755 L179.11072,0.11432 L172.05146,0.11432 L172.05146,10.11732 L179.31078,10.11732 Z M186.75476,10.11732 L186.75476,7.07355 L189.22693,7.07355 C189.379357,7.07355 189.588943,7.06402333 189.85569,7.04497 L189.85569,7.04497 L192.01348,10.11732 L193.57109,10.11732 L191.19895,6.75917 C191.903923,6.51147667 192.446943,6.11612 192.82801,5.5731 C193.209077,5.03008 193.39961,4.37274 193.39961,3.60108 C193.39961,2.51504 193.02807,1.66240333 192.28499,1.04317 C191.54191,0.423936667 190.522557,0.11432 189.22693,0.11432 L189.22693,0.11432 L185.32576,0.11432 L185.32576,10.11732 L186.75476,10.11732 Z M189.18406,5.8589 L186.75476,5.8589 L186.75476,1.35755 L189.18406,1.35755 C190.089093,1.35755 190.779777,1.550465 191.25611,1.936295 C191.732443,2.322125 191.97061,2.87705333 191.97061,3.60108 C191.97061,4.32510667 191.732443,4.88241667 191.25611,5.27301 C190.779777,5.66360333 190.089093,5.8589 189.18406,5.8589 L189.18406,5.8589 Z M200.84359,10.11732 L200.84359,0.11432 L199.41459,0.11432 L199.41459,10.11732 L200.84359,10.11732 Z M208.97349,10.11732 L208.97349,2.65794 L214.97529,10.11732 L216.14707,10.11732 L216.14707,0.11432 L214.71807,0.11432 L214.71807,7.5737 L208.71627,0.11432 L207.54449,0.11432 L207.54449,10.11732 L208.97349,10.11732 Z M227.36361,10.23164 C228.07811,10.23164 228.76403,10.1220833 229.42137,9.90297 C230.07871,9.68385667 230.655073,9.36947667 231.15046,8.95983 L231.15046,8.95983 L231.15046,5.05866 L229.77862,5.05866 L229.77862,8.31678 C229.111753,8.74548 228.330567,8.95983 227.43506,8.95983 C226.682453,8.95983 226.003678,8.79311333 225.398735,8.45968 C224.793792,8.12624667 224.31984,7.666585 223.97688,7.080695 C223.63392,6.494805 223.46244,5.83984667 223.46244,5.11582 C223.46244,4.38226667 223.63392,3.722545 223.97688,3.136655 C224.31984,2.550765 224.793792,2.093485 225.398735,1.764815 C226.003678,1.436145 226.687217,1.27181 227.44935,1.27181 C228.583023,1.27181 229.54998,1.65764 230.35022,2.4293 L230.35022,2.4293 L231.2362,1.54332 C230.77892,1.03840667 230.223992,0.654958333 229.571415,0.392975 C228.918838,0.130991667 228.19243,0 227.39219,0 C226.372837,0 225.455895,0.219113333 224.641365,0.65734 C223.826835,1.09556667 223.188548,1.70527333 222.726505,2.48646 C222.264462,3.26764667 222.03344,4.1441 222.03344,5.11582 C222.03344,6.08754 222.264462,6.96161167 222.726505,7.738035 C223.188548,8.51445833 223.824453,9.124165 224.63422,9.567155 C225.443987,10.010145 226.353783,10.23164 227.36361,10.23164 Z" id="DEVOPSENGINEERING"></path>
        </g>
        <g id="decoration-left" transform="translate(24.000000, 19.000000)" fill="#FED91F" fill-rule="nonzero">
            <polygon id="raw-decoration-left" points="30 0 30 10 10 10 10 48 0 48 0 0"></polygon>
        </g>
        <g id="decoration-right" transform="translate(350.000000, 39.000000)" fill="#FED91F" fill-rule="nonzero">
            <polygon id="raw-decoration-right" points="30 0 30 48 0 48 0 38 20 38 20 0"></polygon>
        </g>
    </g>
</svg>